<?xml version="1.0" encoding="UTF-8"?>
<!DOCTYPE svg PUBLIC "-//W3C//DTD SVG 1.1//EN" "http://www.w3.org/Graphics/SVG/1.1/DTD/svg11.dtd">
<svg xmlns="http://www.w3.org/2000/svg" version="1.1" width="112px" height="112px" style="shape-rendering:geometricPrecision; text-rendering:geometricPrecision; image-rendering:optimizeQuality; fill-rule:evenodd; clip-rule:evenodd" xmlns:xlink="http://www.w3.org/1999/xlink">
<g><path style="opacity:0.769" fill="#000000" d="M 111.5,1.5 C 111.5,5.16667 111.5,8.83333 111.5,12.5C 107.832,21.3574 102.332,29.024 95,35.5C 86.5756,48.4826 88.9089,58.4826 102,65.5C 103.746,61.6733 105.746,58.0066 108,54.5C 109.471,49.6292 107.805,46.2958 103,44.5C 97.9721,46.3334 97.4721,48.8334 101.5,52C 97.1264,52.6393 94.7931,50.6393 94.5,46C 96.3367,40.1572 99.8367,38.6572 105,41.5C 104.744,34.4657 106.91,28.4657 111.5,23.5C 111.5,25.8333 111.5,28.1667 111.5,30.5C 110.883,30.6107 110.383,30.944 110,31.5C 107.972,37.1534 108.472,42.4868 111.5,47.5C 111.5,51.5 111.5,55.5 111.5,59.5C 109.65,62.6867 107.65,65.8533 105.5,69C 107.351,70.7524 109.351,72.2524 111.5,73.5C 111.5,75.1667 111.5,76.8333 111.5,78.5C 108.622,77.63 105.955,76.2967 103.5,74.5C 102.289,76.4219 100.956,78.2552 99.5,80C 96.8333,80 94.1667,80 91.5,80C 90.2857,82.3506 89.4523,84.8506 89,87.5C 86.1706,89.1303 83.1706,90.4636 80,91.5C 80.499,94.5182 80.3323,97.5182 79.5,100.5C 77.6675,101.248 76.0009,102.248 74.5,103.5C 76.2967,105.955 77.63,108.622 78.5,111.5C 76.8333,111.5 75.1667,111.5 73.5,111.5C 72.2524,109.351 70.7524,107.351 69,105.5C 65.5155,107.15 62.3488,109.15 59.5,111.5C 55.5,111.5 51.5,111.5 47.5,111.5C 42.5336,108.29 37.2002,107.79 31.5,110C 30.944,110.383 30.6107,110.883 30.5,111.5C 28.1667,111.5 25.8333,111.5 23.5,111.5C 28.4065,106.694 34.4065,104.528 41.5,105C 39.1604,101.286 39.827,97.9531 43.5,95C 49.2435,93.7583 52.0768,95.925 52,101.5C 50.276,98.2697 48.276,97.9364 46,100.5C 45.2985,106.758 48.1318,109.258 54.5,108C 58.4678,105.68 62.4678,103.347 66.5,101C 60.314,90.6053 51.6473,87.6053 40.5,92C 32.1396,99.5014 23.1396,106.001 13.5,111.5C 9.5,111.5 5.5,111.5 1.5,111.5C 3.76227,110.177 6.0956,108.843 8.5,107.5C 1.20708,101.074 0.707083,94.0743 7,86.5C 7.71706,82.9551 7.55039,79.4551 6.5,76C 6.83333,75.5 7.16667,75 7.5,74.5C 11.0898,76.8175 12.4231,80.1508 11.5,84.5C 16.2548,84.1563 17.5881,86.1563 15.5,90.5C 19.1962,93.7621 19.3629,97.0955 16,100.5C 15.5,100.333 15,100.167 14.5,100C 16.3225,95.1542 14.6558,93.4876 9.5,95C 5.86471,98.8463 6.19804,102.513 10.5,106C 16.7571,104.461 22.0904,101.127 26.5,96C 23.4653,95.2073 21.2987,93.374 20,90.5C 19.8814,85.7176 19.2148,81.0509 18,76.5C 16.1886,74.4567 14.022,72.9567 11.5,72C 12.5,71.6667 13.5,71.3333 14.5,71C 12.9926,70.1627 12.4926,68.9961 13,67.5C 16.2094,70.5166 19.7094,71.0166 23.5,69C 26.8333,66.3333 30.1667,63.6667 33.5,61C 35.783,60.7088 37.9497,61.2088 40,62.5C 40.5,62.1667 41,61.8333 41.5,61.5C 41.1332,55.24 39.4665,49.4067 36.5,44C 32.9748,43.3421 30.1414,44.5088 28,47.5C 26.9772,52.3445 28.8105,54.5111 33.5,54C 34.0465,53.0754 34.7132,52.2421 35.5,51.5C 36.5051,56.8147 34.1718,58.8147 28.5,57.5C 28.5604,62.6506 26.5604,63.6506 22.5,60.5C 19.517,64.1606 15.8504,65.1606 11.5,63.5C 13.5378,61.7236 15.7045,60.0569 18,58.5C 19.8065,54.082 21.8065,49.7486 24,45.5C 27.1025,41.6777 30.9358,40.6777 35.5,42.5C 35.9454,39.7821 35.2788,37.1154 33.5,34.5C 36.3066,33.8627 38.9733,34.5294 41.5,36.5C 40.6482,31.2345 42.3149,26.7345 46.5,23C 50.5,21.3333 54.5,19.6667 58.5,18C 60.2907,15.586 61.9574,13.086 63.5,10.5C 65.3001,15.0693 64.3001,18.9027 60.5,22C 63.6855,26.0696 62.6855,28.5696 57.5,29.5C 58.4904,34.5096 56.4904,36.5096 51.5,35.5C 52.6053,34.1076 53.9386,32.941 55.5,32C 49.9494,25.4476 45.9494,26.4476 43.5,35C 44.7507,37.3029 46.7507,38.6362 49.5,39C 54.1253,40.1624 58.792,40.4958 63.5,40C 61.5218,37.5027 61.0218,34.6693 62,31.5C 64.6667,28.1667 67.3333,24.8333 70,21.5C 70.782,18.7431 70.282,16.2431 68.5,14C 69.8721,13.5983 71.2054,13.0983 72.5,12.5C 73.7016,15.8677 76.0349,18.0343 79.5,19C 84.2291,19.2727 88.8958,19.9393 93.5,21C 93.9884,23.1761 94.9884,25.0094 96.5,26.5C 100.156,22.5215 103.322,18.1881 106,13.5C 106.282,9.43414 104.282,7.1008 100,6.5C 95.1953,7.44464 93.6953,10.1113 95.5,14.5C 97.0064,15.7472 98.5064,15.7472 100,14.5C 100.617,15.4491 100.451,16.2825 99.5,17C 96.1343,18.7673 93.3009,17.934 91,14.5C 89.5341,16.3249 87.7008,16.8249 85.5,16C 84.2889,14.8869 84.2889,13.7202 85.5,12.5C 82.4436,11.8038 79.4436,10.9704 76.5,10C 75.2351,8.6626 74.7351,7.1626 75,5.5C 77.1407,6.76826 79.4741,7.43492 82,7.5C 86.8774,5.97879 91.7108,4.31213 96.5,2.5C 101.207,2.68542 104.874,4.68542 107.5,8.5C 108.843,6.0956 110.177,3.76227 111.5,1.5 Z M 74.5,23.5 C 76.5,23.5 78.5,23.5 80.5,23.5C 80.5,24.8333 80.5,26.1667 80.5,27.5C 82.1992,27.6602 83.8659,27.4935 85.5,27C 87.8504,23.9493 90.3504,23.7826 93,26.5C 93.6877,27.3317 93.521,27.9984 92.5,28.5C 88.5698,29.0871 84.9031,30.4205 81.5,32.5C 80.7193,31.2634 79.7193,30.2634 78.5,29.5C 77.8333,31.1667 77.1667,32.8333 76.5,34.5C 72.6925,36.0841 69.0258,37.5841 65.5,39C 64.1398,37.0624 64.4732,35.3957 66.5,34C 68.8045,33.1048 71.1378,32.2715 73.5,31.5C 74.7345,29.6017 74.4011,27.935 72.5,26.5C 73.1925,25.4822 73.8592,24.4822 74.5,23.5 Z M 86.5,34.5 C 87.675,34.281 88.675,34.6143 89.5,35.5C 87.6374,39.0924 85.9707,42.7591 84.5,46.5C 80.9076,44.6374 77.2409,42.9707 73.5,41.5C 73.7093,40.914 74.0426,40.414 74.5,40C 79.8075,40.7033 83.8075,38.87 86.5,34.5 Z M 41.5,41.5 C 54.1978,43.9347 66.8645,46.4347 79.5,49C 87.5182,55.255 89.8516,63.0883 86.5,72.5C 81.5488,71.1276 76.7155,69.4609 72,67.5C 68.0875,62.8378 68.7542,59.1711 74,56.5C 76.0257,57.5202 77.3591,59.1868 78,61.5C 80.6812,54.3838 78.1812,51.2171 70.5,52C 68.8946,53.3603 67.3946,54.8603 66,56.5C 61.7336,52.1166 56.567,49.45 50.5,48.5C 49.1824,55.7008 51.5157,61.5341 57.5,66C 51.7186,68.0724 50.2186,71.9057 53,77.5C 56.0523,79.8509 59.219,80.0176 62.5,78C 56.6659,76.62 55.6659,73.9534 59.5,70C 64.1205,68.462 67.2871,69.962 69,74.5C 69.8659,78.2643 71.0326,81.931 72.5,85.5C 61.7416,89.9665 53.5749,86.9665 48,76.5C 46.6066,69.2391 45.6066,61.9057 45,54.5C 44.1329,50.0684 42.9662,45.7351 41.5,41.5 Z M 53.5,53.5 C 56.2257,53.2639 58.559,54.0972 60.5,56C 63.0796,59.1584 65.4129,62.4918 67.5,66C 64.788,66.7381 62.4547,66.0714 60.5,64C 56.6994,61.3859 54.366,57.8859 53.5,53.5 Z M 35.5,64.5 C 40.3518,64.1285 41.1851,65.4619 38,68.5C 36.4379,70.9573 35.4379,73.624 35,76.5C 33.2663,77.2489 31.433,77.7489 29.5,78C 30.6872,79.0195 31.6872,80.1861 32.5,81.5C 30.6312,84.9399 29.4645,88.6066 29,92.5C 27.4126,93.727 26.0793,93.3937 25,91.5C 24.3333,90.1667 24.3333,88.8333 25,87.5C 27.554,85.3968 28.054,82.8968 26.5,80C 25.552,79.5172 24.552,79.3505 23.5,79.5C 23.2838,73.7755 25.9505,71.6089 31.5,73C 32.894,70.1831 34.2274,67.3497 35.5,64.5 Z M 92.5,66.5 C 96.1298,67.6091 97.9631,69.9424 98,73.5C 96.806,75.5254 95.306,75.8587 93.5,74.5C 92.52,71.9135 92.1866,69.2469 92.5,66.5 Z M 41.5,72.5 C 43.0516,76.7734 45.0516,80.9401 47.5,85C 43.2317,85.8959 39.2317,87.3959 35.5,89.5C 34.9401,86.6123 36.1068,84.279 39,82.5C 39.0262,78.8609 39.8595,75.5275 41.5,72.5 Z M 74.5,73.5 C 78.1382,74.8247 81.8049,76.158 85.5,77.5C 86.4961,83.8372 83.8294,86.5039 77.5,85.5C 75.6743,81.6928 74.6743,77.6928 74.5,73.5 Z M 66.5,93.5 C 68.9664,92.3659 71.633,92.1993 74.5,93C 76.0111,95.7821 75.1777,97.6155 72,98.5C 70.172,96.8635 68.3386,95.1968 66.5,93.5 Z"/></g>
<g><path style="opacity:0.629" fill="#000000" d="M 66.5,3.5 C 67.8333,3.5 69.1667,3.5 70.5,3.5C 70.9899,5.94835 70.1566,7.61502 68,8.5C 65.3894,7.50009 64.8894,5.83342 66.5,3.5 Z"/></g>
<g><path style="opacity:0.654" fill="#000000" d="M 4.5,65.5 C 5.83333,65.5 7.16667,65.5 8.5,65.5C 8.98989,67.9484 8.15656,69.615 6,70.5C 3.38943,69.5001 2.88943,67.8334 4.5,65.5 Z"/></g>
</svg>
