<?xml version="1.0" encoding="UTF-8"?>
<!DOCTYPE svg PUBLIC "-//W3C//DTD SVG 1.1//EN" "http://www.w3.org/Graphics/SVG/1.1/DTD/svg11.dtd">
<svg xmlns="http://www.w3.org/2000/svg" version="1.1" width="216px" height="216px" style="shape-rendering:geometricPrecision; text-rendering:geometricPrecision; image-rendering:optimizeQuality; fill-rule:evenodd; clip-rule:evenodd" xmlns:xlink="http://www.w3.org/1999/xlink">
<g><path style="opacity:0.834" fill="#fefffe" d="M 215.5,10.5 C 215.5,17.1667 215.5,23.8333 215.5,30.5C 212.491,38.1817 208.658,45.515 204,52.5C 195.975,60.5298 188.641,69.1965 182,78.5C 173.024,92.4475 173.357,106.114 183,119.5C 186.867,123.702 191.033,127.535 195.5,131C 196.635,131.749 197.635,131.583 198.5,130.5C 201.825,123.179 205.659,116.179 210,109.5C 212.226,100.288 208.893,93.9543 200,90.5C 194.05,91.4329 191.716,94.7663 193,100.5C 198.209,106.596 197.375,107.762 190.5,104C 183.541,96.6676 183.874,89.6676 191.5,83C 195.701,82.0776 199.701,82.5776 203.5,84.5C 204.133,71.9324 208.133,60.5991 215.5,50.5C 215.5,54.8333 215.5,59.1667 215.5,63.5C 214.21,64.0577 213.377,65.0577 213,66.5C 209.404,76.9509 210.237,86.9509 215.5,96.5C 215.5,103.5 215.5,110.5 215.5,117.5C 211.481,123.694 207.814,130.194 204.5,137C 207.849,140.005 211.516,142.505 215.5,144.5C 215.5,147.5 215.5,150.5 215.5,153.5C 210.516,151.592 205.683,149.259 201,146.5C 198,150.5 195,154.5 192,158.5C 187.973,157.158 183.973,155.824 180,154.5C 178.842,154.998 178.009,155.831 177.5,157C 176.292,160.75 175.458,164.584 175,168.5C 174.215,170.286 173.049,171.786 171.5,173C 166.465,174.343 161.465,175.843 156.5,177.5C 156.167,178 155.833,178.5 155.5,179C 158.005,183.645 158.671,188.478 157.5,193.5C 153.504,195.163 149.837,197.329 146.5,200C 149.831,204.828 152.497,209.995 154.5,215.5C 151.5,215.5 148.5,215.5 145.5,215.5C 144.328,210.501 141.495,206.834 137,204.5C 130.21,207.807 123.71,211.474 117.5,215.5C 111.167,215.5 104.833,215.5 98.5,215.5C 96.6146,213.689 94.2813,212.522 91.5,212C 84.9008,210.504 78.2342,210.171 71.5,211C 68.3156,211.754 65.6489,213.254 63.5,215.5C 59.5,215.5 55.5,215.5 51.5,215.5C 54.4393,212.082 58.106,209.582 62.5,208C 69.5927,205.382 76.9261,204.048 84.5,204C 84.9574,203.586 85.2907,203.086 85.5,202.5C 81.0152,189.295 85.6818,183.461 99.5,185C 105.094,187.343 106.928,191.177 105,196.5C 103.287,191.962 100.12,190.462 95.5,192C 90.5082,197.138 90.8415,202.138 96.5,207C 100.261,209.229 104.261,210.229 108.5,210C 116.009,205.745 123.676,201.745 131.5,198C 132.517,196.951 132.684,195.784 132,194.5C 125.815,186.812 118.315,180.646 109.5,176C 99.6291,173.44 90.2958,174.773 81.5,180C 70.8333,188.667 60.1667,197.333 49.5,206C 43.0437,209.228 36.7103,212.395 30.5,215.5C 24.1667,215.5 17.8333,215.5 11.5,215.5C 15.29,213.442 19.29,211.609 23.5,210C 24.3567,209.311 25.0233,208.478 25.5,207.5C 22.3905,205.525 19.5572,203.192 17,200.5C 15.5257,196.578 14.359,192.578 13.5,188.5C 14.1367,184.349 15.3034,180.349 17,176.5C 24.3801,167.663 25.5467,157.997 20.5,147.5C 23.7845,147.269 26.2845,148.603 28,151.5C 29.1016,156.105 29.935,160.771 30.5,165.5C 32.0755,166.446 33.7422,166.446 35.5,165.5C 39.2541,166.852 40.4208,169.518 39,173.5C 37.8333,174.667 36.6667,175.833 35.5,177C 43.9861,182.4 44.6527,188.567 37.5,195.5C 36.6168,193.262 36.9501,191.095 38.5,189C 34.9822,181.541 29.9822,180.541 23.5,186C 20.7691,191.549 20.9358,197.049 24,202.5C 26.1414,205.491 28.9748,206.658 32.5,206C 39.0021,202.25 45.3355,198.25 51.5,194C 54.0448,191.624 56.3782,189.124 58.5,186.5C 55.7542,184.527 52.7542,183.027 49.5,182C 48.2986,181.097 47.4652,179.931 47,178.5C 46.107,169.098 44.7736,159.765 43,150.5C 39.7308,147.117 35.8974,144.617 31.5,143C 32.8333,142 34.1667,141 35.5,140C 33.4407,138.815 33.274,137.648 35,136.5C 40.5425,139.62 46.0425,139.786 51.5,137C 57.2585,131.238 63.5918,126.238 70.5,122C 75.4591,120.828 79.7925,121.995 83.5,125.5C 84.4147,124.672 85.0814,123.672 85.5,122.5C 83.8423,112.065 81.6757,101.732 79,91.5C 76.4406,88.6508 73.2739,87.8175 69.5,89C 64.2772,91.3885 60.6106,95.2218 58.5,100.5C 60.253,106.782 64.253,109.615 70.5,109C 71.9557,107.255 73.289,105.422 74.5,103.5C 75.555,113.097 71.2217,116.763 61.5,114.5C 61.2989,125.565 57.2989,127.232 49.5,119.5C 46.7068,122.729 43.3735,125.229 39.5,127C 35.6182,127.89 31.9515,127.39 28.5,125.5C 33.653,123.52 38.153,120.52 42,116.5C 45.664,108.536 49.3307,100.536 53,92.5C 59.4817,85.6543 67.315,83.6543 76.5,86.5C 75.1309,81.4221 73.4643,76.4221 71.5,71.5C 71.8333,70.8333 72.1667,70.1667 72.5,69.5C 77.2172,72.2927 82.2172,74.2927 87.5,75.5C 85.3226,67.5765 86.4893,60.2431 91,53.5C 98.482,49.2276 106.315,45.7276 114.5,43C 119.441,38.8975 123.441,34.0641 126.5,28.5C 128.35,31.6147 128.85,34.948 128,38.5C 126.106,42.2357 123.606,45.5691 120.5,48.5C 126.946,55.4684 125.613,59.3017 116.5,60C 117.445,65.4919 115.779,70.1585 111.5,74C 109.098,74.8141 106.765,74.6474 104.5,73.5C 113.219,66.4883 112.219,61.1549 101.5,57.5C 92.8888,60.3788 89.0554,66.3788 90,75.5C 94.688,78.5878 99.8547,80.7545 105.5,82C 112.157,83.199 118.824,83.8657 125.5,84C 125.957,83.586 126.291,83.086 126.5,82.5C 122.361,77.6937 121.528,72.3604 124,66.5C 129,60.8333 134,55.1667 139,49.5C 140.645,44.3684 140.145,39.3684 137.5,34.5C 138.651,33.269 139.817,33.269 141,34.5C 141.689,33.6433 142.522,32.9767 143.5,32.5C 146.659,36.4917 150.326,39.9917 154.5,43C 161.484,43.832 168.484,44.4987 175.5,45C 182.065,45.9258 185.565,49.7591 186,56.5C 186.718,57.4506 187.551,57.6172 188.5,57C 195.446,48.7193 201.612,39.8859 207,30.5C 207.458,27.904 206.625,25.7373 204.5,24C 197.675,18.034 191.175,18.2007 185,24.5C 181.881,34.0555 185.381,38.2221 195.5,37C 191.785,40.3103 187.452,41.3103 182.5,40C 180.707,38.2201 179.04,36.3868 177.5,34.5C 175.526,38.1699 172.526,39.3366 168.5,38C 167.57,36.8061 166.903,35.4728 166.5,34C 167.695,32.4675 167.695,30.9675 166.5,29.5C 162.43,29.3825 158.43,28.8825 154.5,28C 151.305,26.3054 148.972,23.8054 147.5,20.5C 148.167,20.1667 148.833,19.8333 149.5,19.5C 153.204,20.9416 157.037,21.9416 161,22.5C 168.618,20.8488 175.784,18.0155 182.5,14C 193.85,10.9482 202.517,14.4482 208.5,24.5C 211.374,20.0856 213.707,15.4189 215.5,10.5 Z M 148.5,50.5 C 151.518,50.7038 154.518,51.0371 157.5,51.5C 157.338,53.5273 157.505,55.5273 158,57.5C 160.737,58.6105 163.571,58.7772 166.5,58C 168.833,56.3333 171.167,54.6667 173.5,53C 179.712,52.5456 182.546,55.3789 182,61.5C 174.304,62.3434 167.137,64.6767 160.5,68.5C 158.527,67.194 156.861,65.5273 155.5,63.5C 154.675,62.6143 153.675,62.281 152.5,62.5C 152.292,64.9201 152.626,67.2534 153.5,69.5C 153.081,70.6721 152.415,71.6721 151.5,72.5C 143.648,73.8429 136.815,77.1763 131,82.5C 127.957,78.9288 127.79,75.2621 130.5,71.5C 135.108,69.6236 139.774,67.957 144.5,66.5C 147.341,62.9758 146.674,60.1424 142.5,58C 144.364,55.3123 146.364,52.8123 148.5,50.5 Z M 170.5,71.5 C 172.167,71.5 173.833,71.5 175.5,71.5C 171.965,79.2475 168.965,87.2475 166.5,95.5C 159.268,91.4356 151.935,87.769 144.5,84.5C 148.857,80.659 153.857,79.659 159.5,81.5C 163.187,78.1446 166.853,74.8113 170.5,71.5 Z M 85.5,83.5 C 92.7266,85.9638 100.06,88.1304 107.5,90C 121.907,91.4896 136.241,93.4896 150.5,96C 168.656,104.814 175.823,119.314 172,139.5C 171.653,141.18 170.653,142.18 169,142.5C 159.183,140.34 149.85,137.007 141,132.5C 135.076,123.838 136.742,117.171 146,112.5C 151.081,114.311 153.414,117.978 153,123.5C 158.8,112.752 155.8,106.086 144,103.5C 138.083,105.084 134.083,108.751 132,114.5C 125.916,107.537 118.416,102.704 109.5,100C 106.167,99.3333 102.833,99.3333 99.5,100C 101.65,111.966 106.983,122.299 115.5,131C 105.712,134.414 102.878,140.914 107,150.5C 108.214,152.049 109.714,153.215 111.5,154C 115.167,154.667 118.833,154.667 122.5,154C 122.957,153.586 123.291,153.086 123.5,152.5C 112.486,150.575 110.819,145.742 118.5,138C 125.842,135.226 131.675,137.059 136,143.5C 139.017,152.38 141.517,161.38 143.5,170.5C 127.197,174.897 113.363,170.897 102,158.5C 99.1901,154.547 97.1901,150.213 96,145.5C 94.1269,133.231 92.7936,120.897 92,108.5C 90.5768,100.471 88.0768,92.8042 84.5,85.5C 84.8627,84.8165 85.1961,84.1499 85.5,83.5 Z M 108.5,106.5 C 119.892,110.05 128.059,117.383 133,128.5C 133.49,129.793 133.657,131.127 133.5,132.5C 120.903,129.072 112.236,121.239 107.5,109C 107.743,108.098 108.077,107.265 108.5,106.5 Z M 74.5,127.5 C 78.1219,126.924 81.1219,127.924 83.5,130.5C 78.3307,136.154 75.164,142.821 74,150.5C 72.8061,151.43 71.4728,152.097 70,152.5C 67.9011,151.713 65.7345,151.38 63.5,151.5C 65.113,154.448 67.113,157.114 69.5,159.5C 68.5705,161.606 67.4038,163.606 66,165.5C 64.648,171.325 62.9813,176.992 61,182.5C 56.9589,181.292 54.4589,178.625 53.5,174.5C 56.2299,170.422 58.5633,166.089 60.5,161.5C 59.7419,157.01 57.0753,155.343 52.5,156.5C 51.6239,153.201 51.4572,149.868 52,146.5C 54.3333,144.833 56.6667,143.167 59,141.5C 61.0477,145.408 63.881,146.241 67.5,144C 69.0323,139.981 70.1989,135.814 71,131.5C 72.3756,130.295 73.5423,128.962 74.5,127.5 Z M 180.5,131.5 C 181.552,131.351 182.552,131.517 183.5,132C 186.427,134.382 189.261,136.882 192,139.5C 190.938,149.476 186.771,150.976 179.5,144C 179.299,139.895 179.632,135.728 180.5,131.5 Z M 84.5,143.5 C 85.4959,143.414 86.3292,143.748 87,144.5C 89.0812,151.995 92.2479,158.995 96.5,165.5C 88.196,167.564 80.3627,170.898 73,175.5C 72.3076,174.975 71.8076,174.308 71.5,173.5C 73.4851,168.511 76.6518,164.511 81,161.5C 82.5996,158.891 82.7662,156.224 81.5,153.5C 82.0015,149.972 83.0015,146.638 84.5,143.5 Z M 146.5,144.5 C 154.457,146.404 162.124,149.07 169.5,152.5C 169.744,157.288 168.41,161.788 165.5,166C 161.78,167.644 157.947,168.81 154,169.5C 149.807,161.741 147.307,153.408 146.5,144.5 Z M 137.5,178.5 C 144.521,177.312 148.521,180.145 149.5,187C 147.042,189.847 144.042,191.18 140.5,191C 137.266,187.855 134.266,184.522 131.5,181C 133.502,179.981 135.502,179.148 137.5,178.5 Z"/></g>
<g><path style="opacity:0.746" fill="#fefffe" d="M 132.5,14.5 C 138.703,13.7569 140.703,16.2569 138.5,22C 130.57,23.9157 128.57,21.4157 132.5,14.5 Z"/></g>
<g><path style="opacity:0.741" fill="#fefffe" d="M 17.5,129.5 C 23.3668,129.206 25.0334,131.872 22.5,137.5C 18.5199,139.432 16.1865,138.265 15.5,134C 15.7586,132.213 16.4253,130.713 17.5,129.5 Z"/></g>
</svg>
