<svg width="18" height="18" viewBox="0 0 18 18" fill="none" xmlns="http://www.w3.org/2000/svg">
<path fill-rule="evenodd" clip-rule="evenodd" d="M8.98969 0.299805C4.19126 0.299805 0.299805 4.19075 0.299805 8.99078C0.299805 12.8299 2.78972 16.0876 6.24316 17.2373C6.67797 17.3168 6.83642 17.0484 6.83642 16.818C6.83642 16.6115 6.82896 16.0652 6.82469 15.3401C4.40734 15.8651 3.8973 14.1749 3.8973 14.1749C3.50196 13.1709 2.93217 12.9036 2.93217 12.9036C2.1431 12.3647 2.99192 12.3754 2.99192 12.3754C3.86422 12.4367 4.32304 13.2712 4.32304 13.2712C5.09824 14.5991 6.35733 14.2155 6.85243 13.993C6.93139 13.4317 7.156 13.0487 7.40409 12.8315C5.47436 12.6117 3.44541 11.8664 3.44541 8.53622C3.44541 7.5871 3.78419 6.8119 4.34012 6.20423C4.25048 5.98442 3.95225 5.10091 4.42548 3.90423C4.42548 3.90423 5.15479 3.67055 6.81508 4.79466C7.50812 4.60207 8.25184 4.50603 8.99076 4.5023C9.72914 4.50603 10.4723 4.60207 11.1664 4.79466C12.8257 3.67055 13.5539 3.90423 13.5539 3.90423C14.0282 5.10091 13.73 5.98442 13.6409 6.20423C14.1979 6.8119 14.534 7.5871 14.534 8.53622C14.534 11.875 12.5018 12.6096 10.5662 12.8246C10.8778 13.093 11.1558 13.6233 11.1558 14.4342C11.1558 15.5957 11.1451 16.5331 11.1451 16.818C11.1451 17.0506 11.3019 17.3211 11.7426 17.2362C15.1934 16.0844 17.6812 12.8294 17.6812 8.99078C17.6812 4.19075 13.7897 0.299805 8.98969 0.299805Z" fill="black"/>
</svg>
