<?xml version="1.0" encoding="UTF-8"?>
<!DOCTYPE svg PUBLIC "-//W3C//DTD SVG 1.1//EN" "http://www.w3.org/Graphics/SVG/1.1/DTD/svg11.dtd">
<svg xmlns="http://www.w3.org/2000/svg" version="1.1" width="175px" height="175px" style="shape-rendering:geometricPrecision; text-rendering:geometricPrecision; image-rendering:optimizeQuality; fill-rule:evenodd; clip-rule:evenodd" xmlns:xlink="http://www.w3.org/1999/xlink">
<g><path style="opacity:0.824" fill="#000000" d="M 85.5,-0.5 C 89.1667,-0.5 92.8333,-0.5 96.5,-0.5C 104.368,3.68557 112.701,4.51891 121.5,2C 122.571,1.14825 123.571,0.314913 124.5,-0.5C 127.833,-0.5 131.167,-0.5 134.5,-0.5C 132.599,1.79568 130.266,3.62901 127.5,5C 120.579,7.38029 113.579,9.04696 106.5,10C 110.588,20.8464 106.921,25.8464 95.5,25C 90.7687,23.052 89.2687,19.8854 91,15.5C 92.3339,19.1044 94.8339,20.271 98.5,19C 103.279,11.5333 101.279,6.53332 92.5,4C 90.0871,3.51617 87.7538,3.8495 85.5,5C 79.8223,8.84055 73.8223,12.1739 67.5,15C 72.2281,22.0276 78.2281,27.6943 85.5,32C 94.2828,34.6581 102.616,33.6581 110.5,29C 118.833,22 127.167,15 135.5,8C 140.768,4.86828 146.101,2.03495 151.5,-0.5C 156.833,-0.5 162.167,-0.5 167.5,-0.5C 163.686,1.11483 160.02,3.11483 156.5,5.5C 165.32,11.802 167.82,20.1353 164,30.5C 161.024,34.7859 158.857,39.4526 157.5,44.5C 158.558,48.8582 159.391,53.1915 160,57.5C 157.532,56.8957 155.532,55.5624 154,53.5C 153.007,49.5577 152.34,45.5577 152,41.5C 150.75,40.4267 149.416,40.4267 148,41.5C 143.534,38.9201 143.367,35.9201 147.5,32.5C 146.185,30.6841 144.685,29.0175 143,27.5C 141.52,22.8533 142.686,19.1867 146.5,16.5C 146.833,16.6667 147.167,16.8333 147.5,17C 144.648,20.3154 144.981,23.3154 148.5,26C 159.625,25.9902 162.625,20.8236 157.5,10.5C 155.833,9.16667 154.167,7.83333 152.5,6.5C 143.51,10.4831 135.843,16.1497 129.5,23.5C 131.153,25.1214 133.153,26.2881 135.5,27C 137.049,28.214 138.215,29.714 139,31.5C 139.361,38.1987 140.028,44.8654 141,51.5C 142.756,55.9659 145.922,58.9659 150.5,60.5C 148.599,61.935 148.266,63.6017 149.5,65.5C 149.167,65.8333 148.833,66.1667 148.5,66.5C 145.397,64.5171 142.064,63.6837 138.5,64C 132.524,68.6359 126.524,73.3025 120.5,78C 116.05,79.1136 112.05,78.2803 108.5,75.5C 108.019,84.9672 109.186,94.3006 112,103.5C 114.167,106.287 117.001,107.12 120.5,106C 126.075,103.474 128.575,99.3069 128,93.5C 123.139,86.6157 119.139,86.949 116,94.5C 114.817,90.7261 115.651,87.5594 118.5,85C 121.553,84.8214 124.553,84.3214 127.5,83.5C 125.963,78.7164 127.629,76.5498 132.5,77C 133.667,78.1667 134.833,79.3333 136,80.5C 139.846,75.1598 145.013,72.9931 151.5,74C 152.308,74.3076 152.975,74.8076 153.5,75.5C 149.598,77.2363 146.098,79.5696 143,82.5C 139.757,88.5549 137.09,94.8882 135,101.5C 129.923,108.781 123.089,111.115 114.5,108.5C 115.392,112.789 116.725,116.956 118.5,121C 118.167,121.5 117.833,122 117.5,122.5C 113.917,120.64 110.251,118.973 106.5,117.5C 107.212,123.775 106.046,129.775 103,135.5C 97.0065,139.579 90.5065,142.746 83.5,145C 79.3073,148.531 75.8073,152.698 73,157.5C 71.4431,154.706 71.1098,151.706 72,148.5C 73.424,145.408 75.2574,142.574 77.5,140C 74.7964,138.171 73.963,135.671 75,132.5C 77.0693,131.736 79.236,131.236 81.5,131C 81.2771,127.807 81.7771,124.64 83,121.5C 85.3167,118.903 88.15,118.07 91.5,119C 89.316,121.016 87.316,123.183 85.5,125.5C 90.5654,134.352 96.0654,134.685 102,126.5C 102.808,124.577 103.308,122.577 103.5,120.5C 103.695,118.275 102.861,116.609 101,115.5C 92.1011,111.884 82.9344,110.55 73.5,111.5C 76.1377,115.135 76.971,119.135 76,123.5C 72.0454,129.123 67.7121,134.457 63,139.5C 61.6306,144.052 62.1306,148.552 64.5,153C 62.3309,151.886 60.4976,152.386 59,154.5C 56.4727,150.639 53.306,147.473 49.5,145C 42.4081,144.357 35.4081,143.357 28.5,142C 26.3028,139.072 24.4695,135.905 23,132.5C 17.277,139.891 11.9436,147.557 7,155.5C 8.78484,162.991 13.6182,165.824 21.5,164C 25.9302,160.222 26.5968,155.888 23.5,151C 20.9032,150.719 18.5699,150.552 16.5,150.5C 17.9103,148.045 20.0769,147.045 23,147.5C 26.9345,147.096 29.6011,148.762 31,152.5C 34.2696,147.229 37.4362,147.229 40.5,152.5C 39.2532,154.042 39.2532,155.542 40.5,157C 43.8333,157.333 47.1667,157.667 50.5,158C 52.8649,159.384 54.5315,161.384 55.5,164C 55.1667,164.5 54.8333,165 54.5,165.5C 49.3816,162.441 44.0482,161.941 38.5,164C 33.0898,167.461 27.2565,169.628 21,170.5C 17.5411,170.733 14.3745,169.899 11.5,168C 9.60703,165.697 7.60703,163.53 5.5,161.5C 2.92297,165.244 0.922972,169.244 -0.5,173.5C -0.5,167.833 -0.5,162.167 -0.5,156.5C 5.67181,141.804 14.5051,128.804 26,117.5C 37.3118,99.2316 34.1452,83.7316 16.5,71C 15.0039,70.4926 13.8373,70.9926 13,72.5C 10.4734,78.7056 7.47342,84.7056 4,90.5C 3.0422,97.6004 5.87554,102.267 12.5,104.5C 16.341,104.33 18.6744,102.33 19.5,98.5C 17.9349,96.1769 16.7682,93.8436 16,91.5C 23.6169,93.7287 26.2836,98.7287 24,106.5C 23.2155,108.286 22.0488,109.786 20.5,111C 16.5272,111.277 12.6938,111.444 9,111.5C 9.09169,122.06 5.92502,131.394 -0.5,139.5C -0.5,135.833 -0.5,132.167 -0.5,128.5C 2.80107,124.868 4.1344,120.535 3.5,115.5C 3.47155,111.764 2.97155,108.097 2,104.5C 1.79959,102.68 0.96626,101.347 -0.5,100.5C -0.5,95.5 -0.5,90.5 -0.5,85.5C 2.28438,79.0861 5.28438,72.5861 8.5,66C 6.03275,63.3548 5.86608,60.5215 8,57.5C 9.425,56.7877 10.925,56.621 12.5,57C 14.4791,53.5283 16.8125,50.3617 19.5,47.5C 23.1103,49.3295 26.777,49.9961 30.5,49.5C 31.8333,45.1667 33.1667,40.8333 34.5,36.5C 38.822,34.3997 43.322,32.733 48,31.5C 47.6667,27.1667 47.3333,22.8333 47,18.5C 50.4411,16.724 53.6078,14.5574 56.5,12C 55.269,10.8173 55.269,9.65066 56.5,8.5C 59.226,6.43672 61.726,6.43672 64,8.5C 68.3869,6.7235 72.5536,4.55683 76.5,2C 79.6282,1.15876 82.6282,0.325426 85.5,-0.5 Z M 58.5,19.5 C 63.0297,21.0227 66.363,24.0227 68.5,28.5C 64.4856,30.3766 60.4856,30.5433 56.5,29C 53.4664,24.9741 54.1331,21.8074 58.5,19.5 Z M 126.5,27.5 C 130.274,28.1076 132.608,30.2742 133.5,34C 131.082,37.4235 129.082,41.0902 127.5,45C 127.735,45.8732 128.069,46.7065 128.5,47.5C 130.341,48.2304 132.175,48.8971 134,49.5C 135.956,55.3352 134.123,59.3352 128.5,61.5C 127.354,60.8551 126.354,60.0217 125.5,59C 124.5,58.3333 123.5,58.3333 122.5,59C 120.506,62.9307 119.006,67.0973 118,71.5C 114.693,74.2554 111.526,74.0887 108.5,71C 112.804,65.8922 115.637,60.0589 117,53.5C 119.132,52.2203 121.298,52.2203 123.5,53.5C 124.308,53.1924 124.975,52.6924 125.5,52C 123.5,50.3333 121.5,48.6667 119.5,47C 123.387,41.0743 125.721,34.5743 126.5,27.5 Z M 115.5,33.5 C 117.344,34.2039 117.844,35.5372 117,37.5C 114.667,40.5 112.333,43.5 110,46.5C 109.667,50.1667 109.333,53.8333 109,57.5C 108.581,58.6721 107.915,59.6721 107,60.5C 104.376,53.919 101.209,47.5857 97.5,41.5C 102.518,39.7712 107.518,37.9379 112.5,36C 113.942,35.6232 114.942,34.7899 115.5,33.5 Z M 67.5,35.5 C 84.032,36.1957 94.532,44.529 99,60.5C 98.9233,77.7075 101.757,94.3742 107.5,110.5C 100.492,108.776 93.4916,106.943 86.5,105C 76.4604,103.959 66.4604,102.625 56.5,101C 41.7227,96.3012 34.7227,86.1345 35.5,70.5C 35.6667,67.8333 35.8333,65.1667 36,62.5C 36.6667,61.8333 37.3333,61.1667 38,60.5C 44.4726,62.6575 50.9726,64.8242 57.5,67C 66.6172,73.5899 66.6172,80.0899 57.5,86.5C 52.9032,84.9651 51.2365,81.9651 52.5,77.5C 51.8333,76.1667 51.1667,76.1667 50.5,77.5C 46.6896,88.7123 50.6896,93.8789 62.5,93C 65.0291,90.7475 67.1958,88.2475 69,85.5C 73.2632,89.7596 78.0966,93.2596 83.5,96C 87.0863,97.1076 90.753,97.6076 94.5,97.5C 93.5115,87.1873 89.5115,78.1873 82.5,70.5C 89.7426,68.0154 92.2426,63.0154 90,55.5C 87.0239,51.0606 82.8572,49.5606 77.5,51C 76.8333,51.3333 76.1667,51.6667 75.5,52C 84.273,54.2339 85.6064,58.5672 79.5,65C 73.3163,67.0683 68.4829,65.235 65,59.5C 63.2439,52.9752 61.4106,46.4752 59.5,40C 59.5852,38.8926 59.9186,37.8926 60.5,37C 63.0356,36.8138 65.369,36.3138 67.5,35.5 Z M 46.5,38.5 C 48.4672,38.2606 50.3005,38.5939 52,39.5C 53.6063,45.7636 55.4396,51.9303 57.5,58C 50.9679,57.6178 44.6346,56.1178 38.5,53.5C 36.7574,45.9778 39.4241,40.9778 46.5,38.5 Z M 21.5,56.5 C 25.0053,55.8909 27.672,57.0576 29.5,60C 28.4519,61.7562 28.4519,63.5896 29.5,65.5C 29.2237,67.3302 28.557,68.9968 27.5,70.5C 24.4744,67.8046 21.4744,65.1379 18.5,62.5C 19.5133,60.4734 20.5133,58.4734 21.5,56.5 Z M 66.5,70.5 C 67.6009,69.4017 68.9343,69.235 70.5,70C 80.3706,74.0286 86.3706,81.1952 88.5,91.5C 80.8886,89.7428 75.0553,85.4094 71,78.5C 69.7258,75.6089 68.2258,72.9422 66.5,70.5 Z M 39.5,100.5 C 45.0012,104.118 51.0012,106.785 57.5,108.5C 58.3857,109.325 58.719,110.325 58.5,111.5C 53.6522,112.988 48.6522,113.821 43.5,114C 40.9215,117.245 37.7548,119.745 34,121.5C 33.5,121.167 33,120.833 32.5,120.5C 36.0313,114.239 38.3646,107.572 39.5,100.5 Z M 67.5,112.5 C 72.4198,114.974 72.7531,118.141 68.5,122C 64.8411,122.794 61.3411,123.961 58,125.5C 57.1554,128.13 57.6554,130.464 59.5,132.5C 57.2875,137.691 53.2875,139.691 47.5,138.5C 48.921,132.887 46.921,130.72 41.5,132C 39.0366,134.565 36.0366,136.065 32.5,136.5C 29.0896,136.258 27.0896,134.425 26.5,131C 27.1667,130.333 27.8333,129.667 28.5,129C 34.5592,128.758 40.0592,126.925 45,123.5C 47.2659,124.707 49.0992,126.374 50.5,128.5C 51.1667,125.833 51.8333,123.167 52.5,120.5C 55.7957,119.235 59.129,118.068 62.5,117C 64.6175,115.951 66.2842,114.451 67.5,112.5 Z"/></g>
<g><path style="opacity:0.702" fill="#000000" d="M 158.5,64.5 C 163.675,63.5071 165.509,65.5071 164,70.5C 160.709,73.4366 158.542,72.7699 157.5,68.5C 157.623,67.0755 157.957,65.7421 158.5,64.5 Z"/></g>
<g><path style="opacity:0.69" fill="#000000" d="M 63.5,162.5 C 65.604,162.201 67.604,162.534 69.5,163.5C 70.7039,168.459 68.7039,170.292 63.5,169C 62.232,166.837 62.232,164.67 63.5,162.5 Z"/></g>
</svg>
