<?xml version="1.0" encoding="UTF-8"?>
<!DOCTYPE svg PUBLIC "-//W3C//DTD SVG 1.1//EN" "http://www.w3.org/Graphics/SVG/1.1/DTD/svg11.dtd">
<svg xmlns="http://www.w3.org/2000/svg" version="1.1" width="175px" height="175px" style="shape-rendering:geometricPrecision; text-rendering:geometricPrecision; image-rendering:optimizeQuality; fill-rule:evenodd; clip-rule:evenodd" xmlns:xlink="http://www.w3.org/1999/xlink">
<g><path style="opacity:0.824" fill="#000000" d="M 174.5,0.5 C 174.5,6.16667 174.5,11.8333 174.5,17.5C 168.328,32.196 159.495,45.196 148,56.5C 136.688,74.7684 139.855,90.2684 157.5,103C 158.996,103.507 160.163,103.007 161,101.5C 163.527,95.2944 166.527,89.2944 170,83.5C 170.958,76.3996 168.124,71.7329 161.5,69.5C 157.659,69.6704 155.326,71.6704 154.5,75.5C 156.065,77.8231 157.232,80.1564 158,82.5C 150.383,80.2713 147.716,75.2713 150,67.5C 150.785,65.714 151.951,64.214 153.5,63C 157.473,62.7229 161.306,62.5562 165,62.5C 164.908,51.9396 168.075,42.6062 174.5,34.5C 174.5,38.1667 174.5,41.8333 174.5,45.5C 171.199,49.1322 169.866,53.4655 170.5,58.5C 170.528,62.2364 171.028,65.9031 172,69.5C 172.2,71.3197 173.034,72.653 174.5,73.5C 174.5,78.5 174.5,83.5 174.5,88.5C 171.716,94.9139 168.716,101.414 165.5,108C 167.967,110.645 168.134,113.478 166,116.5C 164.575,117.212 163.075,117.379 161.5,117C 159.521,120.472 157.188,123.638 154.5,126.5C 150.89,124.671 147.223,124.004 143.5,124.5C 142.167,128.833 140.833,133.167 139.5,137.5C 135.178,139.6 130.678,141.267 126,142.5C 126.333,146.833 126.667,151.167 127,155.5C 123.559,157.276 120.392,159.443 117.5,162C 118.731,163.183 118.731,164.349 117.5,165.5C 114.774,167.563 112.274,167.563 110,165.5C 105.613,167.277 101.446,169.443 97.5,172C 94.3718,172.841 91.3718,173.675 88.5,174.5C 84.8333,174.5 81.1667,174.5 77.5,174.5C 69.6325,170.314 61.2991,169.481 52.5,172C 51.4293,172.852 50.4293,173.685 49.5,174.5C 46.1667,174.5 42.8333,174.5 39.5,174.5C 41.4006,172.204 43.7339,170.371 46.5,169C 53.4215,166.62 60.4215,164.953 67.5,164C 63.4121,153.154 67.0788,148.154 78.5,149C 83.2313,150.948 84.7313,154.115 83,158.5C 81.6661,154.896 79.1661,153.729 75.5,155C 70.7212,162.467 72.7212,167.467 81.5,170C 83.9129,170.484 86.2462,170.15 88.5,169C 94.1777,165.159 100.178,161.826 106.5,159C 101.772,151.972 95.7719,146.306 88.5,142C 79.7172,139.342 71.3838,140.342 63.5,145C 55.1667,152 46.8333,159 38.5,166C 33.2321,169.132 27.8987,171.965 22.5,174.5C 17.1667,174.5 11.8333,174.5 6.5,174.5C 10.3138,172.885 13.9805,170.885 17.5,168.5C 8.6801,162.198 6.1801,153.865 10,143.5C 12.9762,139.214 15.1428,134.547 16.5,129.5C 15.442,125.142 14.6086,120.808 14,116.5C 16.4675,117.104 18.4675,118.438 20,120.5C 20.9929,124.442 21.6596,128.442 22,132.5C 23.2504,133.573 24.5838,133.573 26,132.5C 30.4664,135.08 30.6331,138.08 26.5,141.5C 27.8149,143.316 29.3149,144.983 31,146.5C 32.4804,151.147 31.3137,154.813 27.5,157.5C 27.1667,157.333 26.8333,157.167 26.5,157C 29.3518,153.685 29.0185,150.685 25.5,148C 14.3746,148.01 11.3746,153.176 16.5,163.5C 18.1667,164.833 19.8333,166.167 21.5,167.5C 30.49,163.517 38.1567,157.85 44.5,150.5C 42.8474,148.879 40.8474,147.712 38.5,147C 36.9512,145.786 35.7845,144.286 35,142.5C 34.6386,135.801 33.9719,129.135 33,122.5C 31.2444,118.034 28.0777,115.034 23.5,113.5C 25.4011,112.065 25.7345,110.398 24.5,108.5C 24.8333,108.167 25.1667,107.833 25.5,107.5C 28.6026,109.483 31.9359,110.316 35.5,110C 41.4759,105.364 47.4759,100.697 53.5,96C 57.9498,94.8864 61.9498,95.7197 65.5,98.5C 65.9806,89.0328 64.814,79.6994 62,70.5C 59.8328,67.7132 56.9994,66.8799 53.5,68C 47.9246,70.5264 45.4246,74.6931 46,80.5C 50.8611,87.3843 54.8611,87.051 58,79.5C 59.1825,83.2739 58.3492,86.4406 55.5,89C 52.4465,89.1786 49.4465,89.6786 46.5,90.5C 48.0374,95.2836 46.3707,97.4502 41.5,97C 40.3333,95.8333 39.1667,94.6667 38,93.5C 34.154,98.8402 28.9874,101.007 22.5,100C 21.6919,99.6924 21.0253,99.1924 20.5,98.5C 24.4021,96.7637 27.9021,94.4304 31,91.5C 34.2432,85.4451 36.9098,79.1118 39,72.5C 44.0772,65.2188 50.9105,62.8855 59.5,65.5C 58.6084,61.2108 57.2751,57.0441 55.5,53C 55.8333,52.5 56.1667,52 56.5,51.5C 60.0825,53.3604 63.7492,55.0271 67.5,56.5C 66.7878,50.225 67.9545,44.225 71,38.5C 76.9935,34.4205 83.4935,31.2539 90.5,29C 94.6927,25.469 98.1927,21.3023 101,16.5C 102.557,19.2945 102.89,22.2945 102,25.5C 100.576,28.5922 98.7426,31.4255 96.5,34C 99.2036,35.8286 100.037,38.3286 99,41.5C 96.9307,42.2638 94.764,42.7638 92.5,43C 92.7229,46.1935 92.2229,49.3601 91,52.5C 88.6833,55.0965 85.85,55.9299 82.5,55C 84.684,52.9835 86.684,50.8169 88.5,48.5C 83.4346,39.6483 77.9346,39.315 72,47.5C 71.1922,49.4233 70.6922,51.4233 70.5,53.5C 70.3053,55.7247 71.1387,57.3913 73,58.5C 81.8989,62.1165 91.0656,63.4498 100.5,62.5C 97.8623,58.8653 97.029,54.8653 98,50.5C 101.955,44.8767 106.288,39.5434 111,34.5C 112.369,29.9483 111.869,25.4483 109.5,21C 111.669,22.1138 113.502,21.6138 115,19.5C 117.527,23.3607 120.694,26.5274 124.5,29C 131.592,29.6426 138.592,30.6426 145.5,32C 147.697,34.9282 149.531,38.0949 151,41.5C 156.723,34.1093 162.056,26.4426 167,18.5C 165.215,11.0089 160.382,8.17558 152.5,10C 148.07,13.7785 147.403,18.1118 150.5,23C 153.097,23.281 155.43,23.4477 157.5,23.5C 156.09,25.9546 153.923,26.9546 151,26.5C 147.066,26.9044 144.399,25.2377 143,21.5C 139.73,26.7711 136.564,26.7711 133.5,21.5C 134.747,19.9579 134.747,18.4579 133.5,17C 130.167,16.6667 126.833,16.3333 123.5,16C 121.135,14.6164 119.468,12.6164 118.5,10C 118.833,9.5 119.167,9 119.5,8.5C 124.618,11.5594 129.952,12.0594 135.5,10C 140.91,6.53851 146.744,4.37185 153,3.5C 156.459,3.26721 159.626,4.10054 162.5,6C 164.393,8.30311 166.393,10.4698 168.5,12.5C 171.077,8.75609 173.077,4.75609 174.5,0.5 Z M 117.5,35.5 C 120.5,35.5 123.5,35.5 126.5,35.5C 125.079,41.1132 127.079,43.2799 132.5,42C 134.963,39.435 137.963,37.935 141.5,37.5C 144.91,37.742 146.91,39.5753 147.5,43C 146.833,43.6667 146.167,44.3333 145.5,45C 139.441,45.242 133.941,47.0753 129,50.5C 126.734,49.2931 124.901,47.6264 123.5,45.5C 122.833,48.1667 122.167,50.8333 121.5,53.5C 115.447,54.8434 110.114,57.5101 105.5,61.5C 101.538,58.4228 101.538,55.2562 105.5,52C 109.159,51.2057 112.659,50.039 116,48.5C 116.845,45.8697 116.345,43.5364 114.5,41.5C 116.038,39.7567 117.038,37.7567 117.5,35.5 Z M 138.5,52.5 C 139.675,52.281 140.675,52.6143 141.5,53.5C 138.24,59.9485 135.574,66.6152 133.5,73.5C 128.404,69.6868 122.737,67.0201 116.5,65.5C 115.614,64.675 115.281,63.675 115.5,62.5C 120.348,61.0124 125.348,60.1791 130.5,60C 133.008,57.2611 135.675,54.7611 138.5,52.5 Z M 66.5,63.5 C 73.5084,65.2237 80.5084,67.057 87.5,69C 97.5396,70.0414 107.54,71.3748 117.5,73C 132.277,77.6988 139.277,87.8655 138.5,103.5C 138.333,106.167 138.167,108.833 138,111.5C 137.333,112.167 136.667,112.833 136,113.5C 129.527,111.342 123.027,109.176 116.5,107C 107.383,100.41 107.383,93.9101 116.5,87.5C 121.097,89.0349 122.763,92.0349 121.5,96.5C 122.167,97.8333 122.833,97.8333 123.5,96.5C 127.31,85.2877 123.31,80.1211 111.5,81C 108.971,83.2525 106.804,85.7525 105,88.5C 100.737,84.2404 95.9034,80.7404 90.5,78C 86.9137,76.8924 83.247,76.3924 79.5,76.5C 80.4885,86.8127 84.4885,95.8127 91.5,103.5C 83.534,106.761 81.3674,112.428 85,120.5C 89.1749,123.715 93.6749,124.215 98.5,122C 89.727,119.766 88.3936,115.433 94.5,109C 100.684,106.932 105.517,108.765 109,114.5C 110.756,121.025 112.589,127.525 114.5,134C 114.415,135.107 114.081,136.107 113.5,137C 93.7656,140.547 80.9323,132.714 75,113.5C 75.0767,96.2925 72.2433,79.6258 66.5,63.5 Z M 85.5,82.5 C 93.1114,84.2572 98.9447,88.5906 103,95.5C 104.373,98.4125 105.873,101.246 107.5,104C 101.513,103.673 96.5126,101.173 92.5,96.5C 88.5601,92.6203 86.2268,87.9536 85.5,82.5 Z M 57.5,100.5 C 60.6646,99.9635 63.3312,100.797 65.5,103C 61.1962,108.108 58.3629,113.941 57,120.5C 54.8683,121.78 52.7016,121.78 50.5,120.5C 49.6919,120.808 49.0253,121.308 48.5,122C 50.5,123.667 52.5,125.333 54.5,127C 50.5927,132.502 48.4261,138.668 48,145.5C 43.9735,146.181 41.4735,144.348 40.5,140C 42.9183,136.576 44.9183,132.91 46.5,129C 46.2645,128.127 45.9312,127.293 45.5,126.5C 43.6587,125.77 41.8254,125.103 40,124.5C 38.0439,118.665 39.8773,114.665 45.5,112.5C 46.646,113.145 47.646,113.978 48.5,115C 49.5,115.667 50.5,115.667 51.5,115C 53.3154,110.081 55.3154,105.248 57.5,100.5 Z M 145.5,103.5 C 148.771,105.591 151.937,107.924 155,110.5C 155.125,115.776 152.625,117.943 147.5,117C 146.167,116.333 145.167,115.333 144.5,114C 144.305,110.564 144.638,107.064 145.5,103.5 Z M 66.5,113.5 C 69.5195,119.867 72.8528,126.2 76.5,132.5C 69.8278,134.39 63.4945,137.057 57.5,140.5C 56.3861,139.277 56.2195,137.944 57,136.5C 59.3333,133.5 61.6667,130.5 64,127.5C 64.0287,122.617 64.862,117.95 66.5,113.5 Z M 116.5,116.5 C 122.889,116.337 129.222,117.671 135.5,120.5C 137.492,131.021 133.158,135.854 122.5,135C 120.561,128.719 118.561,122.553 116.5,116.5 Z M 111.5,143.5 C 115.975,143.256 118.642,145.256 119.5,149.5C 118.81,152.354 116.977,154.021 114,154.5C 110.321,152.32 107.487,149.32 105.5,145.5C 107.631,144.831 109.631,144.165 111.5,143.5 Z"/></g>
<g><path style="opacity:0.69" fill="#000000" d="M 105.5,4.5 C 111.158,3.67937 112.825,5.84604 110.5,11C 104.013,12.1579 102.347,9.9912 105.5,4.5 Z"/></g>
<g><path style="opacity:0.703" fill="#000000" d="M 12.5,101.5 C 13.5832,101.539 14.5832,101.873 15.5,102.5C 17.8896,108.608 16.0563,110.608 10,108.5C 8.91644,105.341 9.74978,103.008 12.5,101.5 Z"/></g>
</svg>
