<?xml version="1.0" encoding="UTF-8"?>
<!DOCTYPE svg PUBLIC "-//W3C//DTD SVG 1.1//EN" "http://www.w3.org/Graphics/SVG/1.1/DTD/svg11.dtd">
<svg xmlns="http://www.w3.org/2000/svg" version="1.1" width="175px" height="175px" style="shape-rendering:geometricPrecision; text-rendering:geometricPrecision; image-rendering:optimizeQuality; fill-rule:evenodd; clip-rule:evenodd" xmlns:xlink="http://www.w3.org/1999/xlink">
<g><path style="opacity:0.823" fill="#000000" d="M 6.5,-0.5 C 11.8333,-0.5 17.1667,-0.5 22.5,-0.5C 29.061,2.4502 35.3943,5.9502 41.5,10C 48.5382,16.7071 55.8716,23.0404 63.5,29C 74.1457,35.3058 84.4791,34.9724 94.5,28C 98.9561,24.0881 102.956,19.7547 106.5,15C 100.178,12.1739 94.1777,8.84055 88.5,5C 83.815,2.91552 79.4817,3.58218 75.5,7C 71.5,11 71.5,15 75.5,19C 77.1667,19.6667 78.8333,19.6667 80.5,19C 81.1552,17.5134 82.1552,16.3467 83.5,15.5C 84.6741,19.9815 83.0075,23.1481 78.5,25C 73.0633,26.6549 68.8966,25.1549 66,20.5C 65.1958,16.7959 65.6958,13.2959 67.5,10C 60.4215,9.04696 53.4215,7.38029 46.5,5C 43.7339,3.62901 41.4006,1.79568 39.5,-0.5C 42.5,-0.5 45.5,-0.5 48.5,-0.5C 58.1515,4.78014 67.8182,4.78014 77.5,-0.5C 81.1667,-0.5 84.8333,-0.5 88.5,-0.5C 91.3718,0.325426 94.3718,1.15876 97.5,2C 101.446,4.55683 105.613,6.7235 110,8.5C 112.274,6.43672 114.774,6.43672 117.5,8.5C 118.645,9.7757 118.645,11.109 117.5,12.5C 120.413,14.8749 123.58,16.8749 127,18.5C 126.667,22.8333 126.333,27.1667 126,31.5C 130.712,32.6348 135.212,34.3015 139.5,36.5C 140.982,40.7392 142.148,45.0725 143,49.5C 146.944,50.2612 150.777,49.5945 154.5,47.5C 157.231,49.9464 159.231,52.9464 160.5,56.5C 162.353,56.92 164.187,57.2533 166,57.5C 168.134,60.5215 167.967,63.3548 165.5,66C 168.89,72.484 171.89,78.984 174.5,85.5C 174.5,90.1667 174.5,94.8333 174.5,99.5C 171.626,104.33 170.292,109.664 170.5,115.5C 169.861,120.575 171.194,124.909 174.5,128.5C 174.5,131.833 174.5,135.167 174.5,138.5C 167.556,130.572 164.556,121.238 165.5,110.5C 153.375,114.2 148.209,109.866 150,97.5C 151.729,94.2969 154.396,92.2969 158,91.5C 157.017,93.8987 155.85,96.3987 154.5,99C 156.283,103.786 159.617,105.453 164.5,104C 168.989,100.529 170.822,96.0295 170,90.5C 166.358,84.048 162.858,77.548 159.5,71C 148.681,76.5382 142.348,85.5382 140.5,98C 141.293,102.231 142.459,106.398 144,110.5C 150.236,120.072 157.236,129.072 165,137.5C 168.74,143.647 171.907,149.98 174.5,156.5C 174.5,162.167 174.5,167.833 174.5,173.5C 173.014,168.906 170.847,164.572 168,160.5C 164.091,168.871 157.591,172.037 148.5,170C 142.255,166.792 135.755,164.292 129,162.5C 125.654,162.961 122.488,163.961 119.5,165.5C 118.668,163.064 119.335,160.897 121.5,159C 125.381,157.81 129.381,157.143 133.5,157C 134.833,155.333 134.833,153.667 133.5,152C 136.775,147.295 139.942,147.461 143,152.5C 145.799,147.713 149.966,146.213 155.5,148C 158.34,151.481 157.674,152.314 153.5,150.5C 151.626,150.39 150.126,151.056 149,152.5C 147.5,161.667 151.333,165.5 160.5,164C 162.96,162.542 165.127,160.709 167,158.5C 166.486,154.124 164.819,150.124 162,146.5C 158.333,141.833 154.667,137.167 151,132.5C 149.619,134.635 148.619,136.968 148,139.5C 146.786,141.049 145.286,142.215 143.5,143C 137.147,143.487 130.814,144.153 124.5,145C 120.667,147.5 117.5,150.667 115,154.5C 113.597,152.802 111.764,152.302 109.5,153C 111.414,148.696 111.914,144.196 111,139.5C 106.288,134.457 101.955,129.123 98,123.5C 97.3333,121.167 97.3333,118.833 98,116.5C 99.5588,114.783 100.392,112.783 100.5,110.5C 90.7582,110.29 81.4249,112.123 72.5,116C 69.86,120.702 70.36,125.202 74,129.5C 80.519,134.384 85.3523,133.051 88.5,125.5C 86.684,123.183 84.684,121.016 82.5,119C 90.719,118.59 93.8857,122.424 92,130.5C 100.04,130.855 101.54,134.189 96.5,140.5C 101.613,144.673 103.447,150.006 102,156.5C 101.586,156.957 101.086,157.291 100.5,157.5C 98.5422,153.752 96.2089,150.252 93.5,147C 87.1192,143.426 80.4525,140.426 73.5,138C 70.0332,134.566 68.0332,130.399 67.5,125.5C 68.6207,122.804 68.6207,120.137 67.5,117.5C 63.7143,118.893 60.0477,120.559 56.5,122.5C 56.1667,122 55.8333,121.5 55.5,121C 57.2751,116.956 58.6084,112.789 59.5,108.5C 53.4201,110.264 47.7535,109.431 42.5,106C 38.184,99.7278 35.0174,92.8945 33,85.5C 29.7468,80.9506 25.5801,77.4506 20.5,75C 27.4685,72.4339 32.9685,74.2673 37,80.5C 38.7713,79.6959 40.2713,78.5292 41.5,77C 46.2188,76.4334 47.8855,78.4334 46.5,83C 49.3004,84.2319 52.3004,84.8985 55.5,85C 58.3492,87.5594 59.1825,90.7261 58,94.5C 54.8611,86.949 50.8611,86.6157 46,93.5C 45.4246,99.3069 47.9246,103.474 53.5,106C 56.9994,107.12 59.8328,106.287 62,103.5C 64.8133,94.3037 65.98,84.9704 65.5,75.5C 61.9498,78.2803 57.9498,79.1136 53.5,78C 47.5,73.3333 41.5,68.6667 35.5,64C 31.9359,63.6837 28.6026,64.5171 25.5,66.5C 24.4104,65.6086 24.4104,64.6086 25.5,63.5C 24.8333,62.5 24.1667,61.5 23.5,60.5C 28.0777,58.9659 31.2444,55.9659 33,51.5C 33.9719,44.8654 34.6386,38.1987 35,31.5C 36.668,27.8345 39.5013,25.6678 43.5,25C 44.4506,24.2825 44.6172,23.4491 44,22.5C 37.4671,15.816 29.9671,10.4826 21.5,6.5C 15.2119,10.0851 13.0452,15.4184 15,22.5C 19.9392,27.9342 24.4392,27.7675 28.5,22C 28.0245,20.2367 27.3578,18.57 26.5,17C 28.2957,16.564 29.6291,17.2307 30.5,19C 32.7235,24.4647 31.3902,28.798 26.5,32C 30.6493,35.5359 30.4826,38.7025 26,41.5C 24.5603,40.8524 23.0603,40.5191 21.5,40.5C 21.6946,44.9152 21.1946,49.2486 20,53.5C 18.5867,55.4136 16.7534,56.7469 14.5,57.5C 14.1667,57 13.8333,56.5 13.5,56C 14.7669,52.2265 15.7669,48.3932 16.5,44.5C 15.1428,39.4526 12.9762,34.7859 10,30.5C 6.12328,20.2386 8.62328,12.0719 17.5,6C 14.0671,3.28937 10.4005,1.1227 6.5,-0.5 Z M 112.5,19.5 C 118.778,19.925 120.611,22.925 118,28.5C 113.93,30.7574 109.763,30.7574 105.5,28.5C 107.6,25.2889 109.934,22.2889 112.5,19.5 Z M 45.5,27.5 C 46.4959,27.4142 47.3292,27.7476 48,28.5C 48.4261,35.3318 50.5927,41.4984 54.5,47C 52.269,48.6097 50.269,50.443 48.5,52.5C 51.3094,52.5236 54.1427,52.8569 57,53.5C 58.3629,60.0589 61.1962,65.8922 65.5,71C 62.4741,74.0887 59.3074,74.2554 56,71.5C 54.9943,67.0973 53.4943,62.9307 51.5,59C 48.9831,58.4208 46.9831,59.2541 45.5,61.5C 39.8773,59.3352 38.0439,55.3352 40,49.5C 41.8254,48.8971 43.6587,48.2304 45.5,47.5C 45.9312,46.7065 46.2645,45.8732 46.5,45C 44.9183,41.0902 42.9183,37.4235 40.5,34C 41.2686,31.0737 42.9353,28.9071 45.5,27.5 Z M 56.5,33.5 C 62.9228,36.7091 69.5895,39.3758 76.5,41.5C 72.7905,47.5857 69.6238,53.919 67,60.5C 66.0853,59.6721 65.4186,58.6721 65,57.5C 66.2381,49.9678 63.9048,43.9678 58,39.5C 56.872,37.6547 56.372,35.6547 56.5,33.5 Z M 102.5,35.5 C 106.422,35.845 110.255,36.5116 114,37.5C 112.986,44.9006 111.319,52.2339 109,59.5C 105.723,65.1088 100.89,66.9422 94.5,65C 88.3936,58.5672 89.727,54.2339 98.5,52C 86.8847,48.2814 82.0514,52.448 84,64.5C 84.4652,65.9308 85.2986,67.0975 86.5,68C 88.4211,68.3603 90.0878,69.1936 91.5,70.5C 84.4885,78.1873 80.4885,87.1873 79.5,97.5C 90.2058,97.5635 98.7058,93.2302 105,84.5C 106.561,87.7833 108.727,90.6166 111.5,93C 123.293,93.924 127.293,88.7574 123.5,77.5C 122.998,76.479 122.332,76.3123 121.5,77C 122.891,81.3911 121.391,84.5577 117,86.5C 107.315,80.3499 107.148,73.8499 116.5,67C 123.053,64.9056 129.553,62.7389 136,60.5C 136.667,61.1667 137.333,61.8333 138,62.5C 141.228,77.1542 137.062,88.9876 125.5,98C 122.911,99.1965 120.244,100.197 117.5,101C 107.54,102.625 97.5396,103.959 87.5,105C 80.4251,106.685 73.4251,108.518 66.5,110.5C 71.976,94.6793 74.8093,78.3459 75,61.5C 78.2716,46.3903 87.4383,37.7236 102.5,35.5 Z M 122.5,38.5 C 132.616,37.782 137.116,42.4487 136,52.5C 130.262,55.6466 124.095,57.6466 117.5,58.5C 118.542,51.6641 120.209,44.9974 122.5,38.5 Z M 147.5,56.5 C 152.123,55.7811 154.79,57.7811 155.5,62.5C 152.526,65.1379 149.526,67.8046 146.5,70.5C 144.617,67.0779 143.95,63.5779 144.5,60C 145.365,58.6412 146.365,57.4745 147.5,56.5 Z M 103.5,69.5 C 104.873,69.3433 106.207,69.51 107.5,70C 104.308,78.388 98.9742,85.0546 91.5,90C 89.6547,91.128 87.6547,91.628 85.5,91.5C 85.6178,88.3117 86.4511,85.3117 88,82.5C 92.4548,77.2028 97.6214,72.8695 103.5,69.5 Z M 132.5,100.5 C 133.497,100.47 134.164,100.97 134.5,102C 135.946,108.506 138.28,114.672 141.5,120.5C 141,120.833 140.5,121.167 140,121.5C 136.27,119.776 133.103,117.276 130.5,114C 127.167,113.667 123.833,113.333 120.5,113C 118.139,112.803 116.472,111.636 115.5,109.5C 120.46,107.356 125.46,105.19 130.5,103C 131.381,102.292 132.047,101.458 132.5,100.5 Z M 103.5,112.5 C 106.489,113.298 109.155,114.798 111.5,117C 114.774,118.202 118.107,119.202 121.5,120C 122.125,122.8 122.792,125.634 123.5,128.5C 125.345,126.769 127.178,125.102 129,123.5C 134.689,126.837 140.689,129.17 147,130.5C 147.138,134.199 145.305,136.199 141.5,136.5C 137.963,136.065 134.963,134.565 132.5,132C 127.079,130.72 125.079,132.887 126.5,138.5C 120.713,139.691 116.713,137.691 114.5,132.5C 116.339,130.473 116.839,128.14 116,125.5C 112.741,123.861 109.241,122.694 105.5,122C 102.346,119.397 101.679,116.231 103.5,112.5 Z"/></g>
<g><path style="opacity:0.703" fill="#000000" d="M 10.5,64.5 C 16.2354,63.8213 17.902,66.1546 15.5,71.5C 9.76981,72.4099 8.10315,70.0766 10.5,64.5 Z"/></g>
<g><path style="opacity:0.691" fill="#000000" d="M 104.5,162.5 C 110.113,161.079 112.28,163.079 111,168.5C 105.101,170.433 102.935,168.433 104.5,162.5 Z"/></g>
</svg>
