<?xml version="1.0" encoding="UTF-8"?>
<!DOCTYPE svg PUBLIC "-//W3C//DTD SVG 1.1//EN" "http://www.w3.org/Graphics/SVG/1.1/DTD/svg11.dtd">
<svg xmlns="http://www.w3.org/2000/svg" version="1.1" width="164px" height="164px" style="shape-rendering:geometricPrecision; text-rendering:geometricPrecision; image-rendering:optimizeQuality; fill-rule:evenodd; clip-rule:evenodd" xmlns:xlink="http://www.w3.org/1999/xlink">
<g><path style="opacity:0.801" fill="#fefffe" d="M 163.5,7.5 C 163.5,12.8333 163.5,18.1667 163.5,23.5C 161.489,29.1839 158.656,34.5172 155,39.5C 148.522,46.4658 142.522,53.7992 137,61.5C 130.017,77.7199 134.184,90.3866 149.5,99.5C 153.412,92.766 157.079,85.9327 160.5,79C 159.855,73.692 157.022,70.192 152,68.5C 144.913,71.1358 144.079,74.9691 149.5,80C 142.146,79.168 139.313,75.0013 141,67.5C 141.833,65.3333 143.333,63.8333 145.5,63C 148.868,62.4572 152.201,62.6239 155.5,63.5C 154.668,53.9349 157.335,45.6015 163.5,38.5C 163.5,41.8333 163.5,45.1667 163.5,48.5C 162.034,49.347 161.2,50.6803 161,52.5C 159.807,59.5668 160.64,66.2335 163.5,72.5C 163.5,74.1667 163.5,75.8333 163.5,77.5C 160.94,92.1698 155.606,105.836 147.5,118.5C 146.5,118.833 145.5,119.167 144.5,119.5C 141.49,118.652 138.49,118.152 135.5,118C 134.085,121.73 132.918,125.563 132,129.5C 128.217,131.994 124.05,133.661 119.5,134.5C 119.167,135.167 118.833,135.833 118.5,136.5C 119.659,139.785 120.159,143.118 120,146.5C 106.984,155.223 92.8175,160.89 77.5,163.5C 76.5,163.5 75.5,163.5 74.5,163.5C 67.6296,159.445 60.2963,158.612 52.5,161C 50.6803,161.2 49.347,162.034 48.5,163.5C 45.5,163.5 42.5,163.5 39.5,163.5C 41.7244,160.376 44.7244,158.209 48.5,157C 53.4366,155.915 58.4366,155.248 63.5,155C 63.7034,151.611 63.87,148.111 64,144.5C 69.3333,137.833 74.6667,137.833 80,144.5C 80.5503,148.668 79.717,149.168 77.5,146C 70.3516,145.786 68.3516,148.953 71.5,155.5C 74.6575,158.419 78.3242,159.586 82.5,159C 88.1667,156 93.8333,153 99.5,150C 100.451,149.282 100.617,148.449 100,147.5C 94.0575,139.196 86.0575,134.196 76,132.5C 70.7575,132.686 65.9242,134.186 61.5,137C 54.1667,143 46.8333,149 39.5,155C 34.2005,158.147 28.8672,160.98 23.5,163.5C 18.5,163.5 13.5,163.5 8.5,163.5C 12.1044,162.028 15.4377,160.028 18.5,157.5C 10.8067,151.912 8.64006,144.578 12,135.5C 13.6667,132.5 15.3333,129.5 17,126.5C 17.5706,121.397 17.0706,116.397 15.5,111.5C 17.9032,111.393 19.7365,112.393 21,114.5C 22.1737,118.046 22.8404,121.713 23,125.5C 24.7216,125.962 26.555,126.128 28.5,126C 31.07,128.915 30.7366,131.581 27.5,134C 33.9395,138.731 34.1061,143.565 28,148.5C 30.3965,140.229 27.5632,137.396 19.5,140C 16.0852,144.064 15.5852,148.564 18,153.5C 19.7373,155.625 21.904,156.458 24.5,156C 31.8169,152.524 38.1502,147.858 43.5,142C 40.1486,140.076 37.3153,137.576 35,134.5C 34.8054,128.436 34.1387,122.436 33,116.5C 32.7265,114.671 31.8932,113.171 30.5,112C 28.3359,111.086 26.3359,109.919 24.5,108.5C 26.1376,107.295 26.4709,105.962 25.5,104.5C 26,104.167 26.5,103.833 27,103.5C 30.7792,105.743 34.6126,105.91 38.5,104C 42.8333,100.333 47.1667,96.6667 51.5,93C 55.9969,92.2706 60.3302,92.7706 64.5,94.5C 63.6309,85.6149 61.7975,76.9482 59,68.5C 58,67.8333 57,67.1667 56,66.5C 50.5075,67.6623 46.6742,70.829 44.5,76C 47.5329,84.0797 51.5329,84.9131 56.5,78.5C 58.2869,84.2421 56.1202,87.2421 50,87.5C 48.8926,87.4148 47.8926,87.0814 47,86.5C 47.0229,94.6732 43.8562,96.3399 37.5,91.5C 32.9189,96.4014 27.5856,97.5681 21.5,95C 26.1778,93.324 30.0111,90.4906 33,86.5C 34.8043,81.4203 36.8043,76.4203 39,71.5C 43.7149,65.2751 49.8816,63.2751 57.5,65.5C 56.7471,61.3228 55.4138,57.3228 53.5,53.5C 53.8333,53.1667 54.1667,52.8333 54.5,52.5C 58.1784,55.0065 62.1784,56.1732 66.5,56C 64.316,49.4972 65.6494,43.8305 70.5,39C 76.1667,36.6667 81.8333,34.3333 87.5,32C 91.0159,29.1291 93.6826,25.6291 95.5,21.5C 98.7224,27.468 97.389,32.468 91.5,36.5C 96.4993,42.5947 95.166,45.5947 87.5,45.5C 89.3678,51.0981 87.5344,54.7648 82,56.5C 81.1667,56.1667 80.3333,55.8333 79.5,55.5C 85.9441,50.5817 85.1108,46.5817 77,43.5C 69.6897,46.1206 67.1897,51.1206 69.5,58.5C 77.8525,62.2261 86.5191,63.5594 95.5,62.5C 91.9316,57.9587 91.7649,53.292 95,48.5C 100.203,44.4743 104.036,39.4743 106.5,33.5C 105.408,30.5467 104.908,27.5467 105,24.5C 106.25,25.5733 107.584,25.5733 109,24.5C 111.185,26.3531 113.018,28.5197 114.5,31C 116.087,31.8624 117.754,32.5291 119.5,33C 125.564,33.1946 131.564,33.8613 137.5,35C 139.385,37.7953 141.051,40.6287 142.5,43.5C 148.084,36.7477 153.084,29.581 157.5,22C 153.923,15.704 148.923,13.8706 142.5,16.5C 137.499,23.999 139.499,27.8323 148.5,28C 143.332,32.9351 138.666,32.4351 134.5,26.5C 132.857,29.4947 130.523,30.1614 127.5,28.5C 126.526,26.2573 126.192,23.924 126.5,21.5C 119.797,23.4007 114.797,21.2341 111.5,15C 116.375,16.2055 121.375,16.5388 126.5,16C 132.013,12.5505 138.013,10.3838 144.5,9.5C 150.723,9.88642 155.223,12.8864 158,18.5C 160.326,14.9833 162.16,11.3166 163.5,7.5 Z M 111.5,38.5 C 114.167,38.5 116.833,38.5 119.5,38.5C 119.5,40.5 119.5,42.5 119.5,44.5C 121.857,44.6633 124.19,44.4966 126.5,44C 129.995,40.1647 133.829,39.6647 138,42.5C 138.72,44.1124 138.554,45.6124 137.5,47C 131.561,46.7221 126.395,48.5554 122,52.5C 120.167,50.8333 118.333,49.1667 116.5,47.5C 115.319,49.1353 115.319,50.802 116.5,52.5C 116.023,53.4776 115.357,54.3109 114.5,55C 108.75,55.7911 103.917,58.2911 100,62.5C 96.5172,59.0993 96.6838,55.9327 100.5,53C 103.78,52.944 106.78,52.1107 109.5,50.5C 111.007,48.0314 110.673,45.8647 108.5,44C 109.639,42.2196 110.639,40.3863 111.5,38.5 Z M 131.5,53.5 C 132.289,53.7828 132.956,54.2828 133.5,55C 130.017,60.4632 127.517,66.2965 126,72.5C 120.784,69.096 115.284,66.2627 109.5,64C 110.328,63.0853 111.328,62.4186 112.5,62C 115.833,61.6667 119.167,61.3333 122.5,61C 125.106,57.8816 128.106,55.3816 131.5,53.5 Z M 64.5,63.5 C 71.3452,65.795 78.3452,67.6284 85.5,69C 95.2532,69.7418 104.92,71.0751 114.5,73C 121.333,75.8333 126.167,80.6667 129,87.5C 130.329,94.092 130.829,100.759 130.5,107.5C 122.534,106.457 114.868,104.29 107.5,101C 102.808,94.6616 103.808,89.495 110.5,85.5C 114.344,87.1753 116.177,90.1753 116,94.5C 120.823,84.3031 117.657,79.1364 106.5,79C 103.527,80.7648 101.36,83.2648 100,86.5C 96.5,83.6667 93,80.8333 89.5,78C 85.0374,76.0255 80.3708,75.1922 75.5,75.5C 76.7548,84.8449 80.7548,92.6783 87.5,99C 79.9834,101.871 77.8168,107.038 81,114.5C 84.795,117.803 88.9617,118.303 93.5,116C 91.3512,114.836 89.1846,113.67 87,112.5C 86.2902,107.029 88.7902,104.029 94.5,103.5C 99.3273,104.158 102.494,106.825 104,111.5C 106.023,117.395 107.523,123.395 108.5,129.5C 91.6472,133.158 79.8138,127.158 73,111.5C 71.67,102.209 70.67,92.8758 70,83.5C 68.6645,76.6653 66.8312,69.9986 64.5,63.5 Z M 82.5,80.5 C 91.7891,83.7891 98.1225,90.1224 101.5,99.5C 101,99.8333 100.5,100.167 100,100.5C 91.3512,97.0175 85.1846,91.0175 81.5,82.5C 81.8627,81.8165 82.1961,81.1499 82.5,80.5 Z M 57.5,96.5 C 63.7808,96.8691 64.6141,98.8691 60,102.5C 58.0054,106.317 56.5054,110.317 55.5,114.5C 53.3052,115.769 51.1385,115.769 49,114.5C 48.5,115 48,115.5 47.5,116C 49.4657,117.46 51.1323,119.127 52.5,121C 49.6443,126.599 47.4776,132.432 46,138.5C 39.1728,134.68 38.8394,130.347 45,125.5C 46.9,120.087 45.0666,117.753 39.5,118.5C 38.6347,113.56 40.3014,109.893 44.5,107.5C 45.646,108.145 46.646,108.978 47.5,110C 48.5,110.667 49.5,110.667 50.5,110C 52.5016,106.847 53.6683,103.347 54,99.5C 55.1451,98.3636 56.3117,97.3636 57.5,96.5 Z M 137.5,99.5 C 140.919,101.412 143.919,103.912 146.5,107C 145.354,109.144 143.854,110.977 142,112.5C 140.237,112.025 138.57,111.358 137,110.5C 136.245,106.745 136.411,103.078 137.5,99.5 Z M 64.5,108.5 C 67.3426,114.351 70.3426,120.184 73.5,126C 67.2743,127.2 61.4409,129.367 56,132.5C 55.5,132.167 55,131.833 54.5,131.5C 56.0381,127.46 58.5381,124.126 62,121.5C 61.9689,116.877 62.8022,112.543 64.5,108.5 Z M 110.5,110.5 C 116.538,111.623 122.538,112.956 128.5,114.5C 128.737,118.41 127.904,122.077 126,125.5C 123.075,126.751 120.075,127.751 117,128.5C 114.226,122.751 112.06,116.751 110.5,110.5 Z M 104.5,135.5 C 110.819,135.006 113.153,137.673 111.5,143.5C 110.5,144.167 109.5,144.833 108.5,145.5C 105.5,143.167 102.833,140.5 100.5,137.5C 101.949,136.828 103.282,136.161 104.5,135.5 Z"/></g>
<g><path style="opacity:0.675" fill="#fefffe" d="M 100.5,10.5 C 105.328,10.3852 106.661,12.5519 104.5,17C 98.7377,17.4178 97.4044,15.2511 100.5,10.5 Z"/></g>
<g><path style="opacity:0.68" fill="#fefffe" d="M 14.5,97.5 C 17.9549,98.1284 19.1215,100.128 18,103.5C 15.9592,104.423 13.7925,104.756 11.5,104.5C 10.9093,101.325 11.9093,98.9913 14.5,97.5 Z"/></g>
</svg>
