<?xml version="1.0" encoding="UTF-8"?>
<!DOCTYPE svg PUBLIC "-//W3C//DTD SVG 1.1//EN" "http://www.w3.org/Graphics/SVG/1.1/DTD/svg11.dtd">
<svg xmlns="http://www.w3.org/2000/svg" version="1.1" width="164px" height="164px" style="shape-rendering:geometricPrecision; text-rendering:geometricPrecision; image-rendering:optimizeQuality; fill-rule:evenodd; clip-rule:evenodd" xmlns:xlink="http://www.w3.org/1999/xlink">
<g><path style="opacity:0.801" fill="#fefffe" d="M -0.5,8.5 C 0.972164,12.1044 2.97216,15.4377 5.5,18.5C 11.0884,10.8067 18.4217,8.64006 27.5,12C 30.5,13.6667 33.5,15.3333 36.5,17C 41.603,17.5706 46.603,17.0706 51.5,15.5C 51.607,17.9032 50.607,19.7365 48.5,21C 44.9542,22.1737 41.2875,22.8404 37.5,23C 37.0385,24.7216 36.8718,26.555 37,28.5C 34.0854,31.07 31.4187,30.7366 29,27.5C 24.2687,33.9395 19.4354,34.1061 14.5,28C 22.7706,30.3965 25.6039,27.5632 23,19.5C 18.9362,16.0852 14.4362,15.5852 9.5,18C 7.37538,19.7373 6.54205,21.904 7,24.5C 10.4758,31.8169 15.1424,38.1502 21,43.5C 22.9237,40.1486 25.4237,37.3153 28.5,35C 34.5639,34.8054 40.5639,34.1387 46.5,33C 48.3289,32.7265 49.8289,31.8932 51,30.5C 51.9143,28.3359 53.081,26.3359 54.5,24.5C 55.7046,26.1376 57.0379,26.4709 58.5,25.5C 58.8333,26 59.1667,26.5 59.5,27C 57.257,30.7792 57.0903,34.6126 59,38.5C 62.6667,42.8333 66.3333,47.1667 70,51.5C 70.7294,55.9969 70.2294,60.3302 68.5,64.5C 77.3851,63.6309 86.0518,61.7975 94.5,59C 95.1667,58 95.8333,57 96.5,56C 95.3377,50.5075 92.171,46.6742 87,44.5C 78.9203,47.5329 78.0869,51.5329 84.5,56.5C 78.9644,58.1555 75.9644,55.9889 75.5,50C 75.5852,48.8926 75.9186,47.8926 76.5,47C 68.3268,47.0229 66.6601,43.8562 71.5,37.5C 66.5986,32.9189 65.4319,27.5856 68,21.5C 69.676,26.1778 72.5094,30.0111 76.5,33C 81.5797,34.8043 86.5797,36.8043 91.5,39C 97.7249,43.7149 99.7249,49.8816 97.5,57.5C 101.677,56.7471 105.677,55.4138 109.5,53.5C 109.833,53.8333 110.167,54.1667 110.5,54.5C 107.994,58.1784 106.827,62.1784 107,66.5C 113.503,64.316 119.169,65.6494 124,70.5C 126.333,76.1667 128.667,81.8333 131,87.5C 133.871,91.0159 137.371,93.6826 141.5,95.5C 135.481,98.6254 130.314,97.292 126,91.5C 120.096,96.4273 117.262,95.0939 117.5,87.5C 111.902,89.3678 108.235,87.5344 106.5,82C 106.833,81.1667 107.167,80.3333 107.5,79.5C 112.418,85.9441 116.418,85.1108 119.5,77C 116.879,69.6897 111.879,67.1897 104.5,69.5C 100.774,77.8525 99.4406,86.5191 100.5,95.5C 105.041,91.9316 109.708,91.7649 114.5,95C 118.526,100.203 123.526,104.036 129.5,106.5C 132.453,105.408 135.453,104.908 138.5,105C 137.427,106.25 137.427,107.584 138.5,109C 136.647,111.185 134.48,113.018 132,114.5C 131.138,116.087 130.471,117.754 130,119.5C 129.805,125.564 129.139,131.564 128,137.5C 125.205,139.385 122.371,141.051 119.5,142.5C 126.252,148.084 133.419,153.084 141,157.5C 147.296,153.923 149.129,148.923 146.5,142.5C 139.001,137.499 135.168,139.499 135,148.5C 130.065,143.332 130.565,138.666 136.5,134.5C 133.505,132.857 132.839,130.523 134.5,127.5C 136.743,126.526 139.076,126.192 141.5,126.5C 139.599,119.797 141.766,114.797 148,111.5C 146.795,116.375 146.461,121.375 147,126.5C 150.449,132.013 152.616,138.013 153.5,144.5C 153.114,150.723 150.114,155.223 144.5,158C 148.017,160.326 151.683,162.16 155.5,163.5C 150.167,163.5 144.833,163.5 139.5,163.5C 133.816,161.489 128.483,158.656 123.5,155C 116.534,148.522 109.201,142.522 101.5,137C 85.2801,130.017 72.6134,134.184 63.5,149.5C 70.234,153.412 77.0673,157.079 84,160.5C 89.308,159.855 92.808,157.022 94.5,152C 91.8642,144.913 88.0309,144.079 83,149.5C 83.832,142.146 87.9987,139.313 95.5,141C 97.6667,141.833 99.1667,143.333 100,145.5C 100.543,148.868 100.376,152.201 99.5,155.5C 109.065,154.668 117.398,157.335 124.5,163.5C 121.167,163.5 117.833,163.5 114.5,163.5C 113.653,162.034 112.32,161.2 110.5,161C 103.433,159.807 96.7665,160.64 90.5,163.5C 88.8333,163.5 87.1667,163.5 85.5,163.5C 70.8302,160.94 57.1635,155.606 44.5,147.5C 44.1667,146.5 43.8333,145.5 43.5,144.5C 44.3478,141.49 44.8478,138.49 45,135.5C 41.2702,134.085 37.4368,132.918 33.5,132C 31.0059,128.217 29.3392,124.05 28.5,119.5C 27.8333,119.167 27.1667,118.833 26.5,118.5C 23.2151,119.659 19.8818,120.159 16.5,120C 7.77652,106.984 2.10986,92.8175 -0.5,77.5C -0.5,76.5 -0.5,75.5 -0.5,74.5C 3.55501,67.6296 4.38834,60.2963 2,52.5C 1.79959,50.6803 0.96626,49.347 -0.5,48.5C -0.5,45.5 -0.5,42.5 -0.5,39.5C 2.62397,41.7244 4.79063,44.7244 6,48.5C 7.08546,53.4366 7.75213,58.4366 8,63.5C 11.3888,63.7034 14.8888,63.87 18.5,64C 25.1667,69.3333 25.1667,74.6667 18.5,80C 14.3315,80.5503 13.8315,79.717 17,77.5C 17.214,70.3516 14.0473,68.3516 7.5,71.5C 4.58063,74.6575 3.41396,78.3242 4,82.5C 7,88.1667 10,93.8333 13,99.5C 13.7175,100.451 14.5509,100.617 15.5,100C 23.804,94.0575 28.804,86.0575 30.5,76C 30.3144,70.7575 28.8144,65.9242 26,61.5C 20,54.1667 14,46.8333 8,39.5C 4.85346,34.2005 2.02013,28.8672 -0.5,23.5C -0.5,18.5 -0.5,13.5 -0.5,8.5 Z M 44.5,39.5 C 49.4404,38.6347 53.107,40.3014 55.5,44.5C 54.8551,45.646 54.0217,46.646 53,47.5C 52.3333,48.5 52.3333,49.5 53,50.5C 56.9609,52.2899 60.9609,53.9566 65,55.5C 67.0317,58.4226 66.6984,61.0892 64,63.5C 59.749,59.1241 54.5823,56.4574 48.5,55.5C 47.2309,53.3052 47.2309,51.1385 48.5,49C 48,48.5 47.5,48 47,47.5C 45.54,49.4657 43.8734,51.1323 42,52.5C 36.4014,49.6443 30.5681,47.4776 24.5,46C 28.32,39.1728 32.6533,38.8394 37.5,45C 42.9134,46.9 45.2468,45.0666 44.5,39.5 Z M 30.5,54.5 C 35.0892,55.5799 38.7558,58.0799 41.5,62C 45.1667,62.3333 48.8333,62.6667 52.5,63C 53.1667,63.6667 53.8333,64.3333 54.5,65C 48.4367,67.4488 42.6033,70.2822 37,73.5C 35.3638,66.9142 33.1971,60.5809 30.5,54.5 Z M 96.5,64.5 C 97.5,64.5 98.5,64.5 99.5,64.5C 97.205,71.3452 95.3716,78.3452 94,85.5C 93.2582,95.2532 91.9249,104.92 90,114.5C 87.1667,121.333 82.3333,126.167 75.5,129C 68.908,130.329 62.2414,130.829 55.5,130.5C 56.5432,122.534 58.7099,114.868 62,107.5C 68.3384,102.808 73.505,103.808 77.5,110.5C 76.0876,114.048 73.4209,115.881 69.5,116C 74.4198,119.598 78.9198,119.098 83,114.5C 85.8953,107.454 83.7287,102.621 76.5,100C 79.3333,96.5 82.1667,93 85,89.5C 86.9745,85.0374 87.8078,80.3708 87.5,75.5C 78.1551,76.7548 70.3217,80.7548 64,87.5C 61.129,79.9834 55.9623,77.8168 48.5,81C 45.1966,84.795 44.6966,88.9617 47,93.5C 48.1638,91.3512 49.3305,89.1846 50.5,87C 55.9709,86.2902 58.9709,88.7902 59.5,94.5C 58.8418,99.3273 56.1751,102.494 51.5,104C 45.6049,106.023 39.6049,107.523 33.5,108.5C 29.6849,88.9434 37.3516,76.7767 56.5,72C 64.1715,71.3885 71.8381,70.7218 79.5,70C 85.6243,69.2214 91.291,67.388 96.5,64.5 Z M 79.5,81.5 C 80.9953,81.4148 81.9953,82.0815 82.5,83.5C 78.7704,92.2291 72.4371,98.2291 63.5,101.5C 63.1667,101 62.8333,100.5 62.5,100C 65.9788,91.6931 71.6455,85.5264 79.5,81.5 Z M 103.5,97.5 C 106.325,97.0807 108.491,98.0807 110,100.5C 110.056,103.78 110.889,106.78 112.5,109.5C 114.969,111.007 117.135,110.673 119,108.5C 124.066,110.36 125.899,114.027 124.5,119.5C 122.5,119.5 120.5,119.5 118.5,119.5C 118.337,121.857 118.503,124.19 119,126.5C 122.835,129.995 123.335,133.829 120.5,138C 118.888,138.72 117.388,138.554 116,137.5C 116.278,131.561 114.445,126.395 110.5,122C 112.167,120.167 113.833,118.333 115.5,116.5C 113.865,115.319 112.198,115.319 110.5,116.5C 109.522,116.023 108.689,115.357 108,114.5C 107.209,108.75 104.709,103.917 100.5,100C 101.571,99.1482 102.571,98.3149 103.5,97.5 Z M 24.5,100.5 C 27.8695,103.721 28.2028,107.387 25.5,111.5C 21.8397,113.169 19.173,112.169 17.5,108.5C 19.8558,105.814 22.1891,103.147 24.5,100.5 Z M 98.5,109.5 C 99.7899,110.058 100.623,111.058 101,112.5C 101.333,115.833 101.667,119.167 102,122.5C 105.262,125.092 107.762,128.259 109.5,132C 109,132.5 108.5,133 108,133.5C 102.537,130.017 96.7035,127.517 90.5,126C 94.0287,120.912 96.6954,115.412 98.5,109.5 Z M 50.5,110.5 C 51.6491,110.791 52.3158,111.624 52.5,113C 50.8551,118.099 49.5217,123.265 48.5,128.5C 44.5898,128.737 40.9231,127.904 37.5,126C 36.2494,123.075 35.2494,120.075 34.5,117C 39.7793,114.523 45.1127,112.356 50.5,110.5 Z M 52.5,136.5 C 56.3751,136.085 60.0418,136.585 63.5,138C 61.372,141.13 58.872,143.963 56,146.5C 53.8562,145.354 52.0228,143.854 50.5,142C 51.0769,140.1 51.7435,138.267 52.5,136.5 Z"/></g>
<g><path style="opacity:0.68" fill="#fefffe" d="M 58.5,11.5 C 62.9755,10.4935 65.1422,12.1602 65,16.5C 59.4973,19.8571 57.3306,18.1904 58.5,11.5 Z"/></g>
<g><path style="opacity:0.675" fill="#fefffe" d="M 147.5,98.5 C 151.976,98.8003 153.31,100.967 151.5,105C 145.339,105.878 144.006,103.711 147.5,98.5 Z"/></g>
</svg>
