<?xml version="1.0" encoding="UTF-8"?>
<!DOCTYPE svg PUBLIC "-//W3C//DTD SVG 1.1//EN" "http://www.w3.org/Graphics/SVG/1.1/DTD/svg11.dtd">
<svg xmlns="http://www.w3.org/2000/svg" version="1.1" width="175px" height="175px" style="shape-rendering:geometricPrecision; text-rendering:geometricPrecision; image-rendering:optimizeQuality; fill-rule:evenodd; clip-rule:evenodd" xmlns:xlink="http://www.w3.org/1999/xlink">
<g><path style="opacity:0.823" fill="#000000" d="M -0.5,0.5 C 0.986285,5.0943 3.15295,9.42764 6,13.5C 9.90868,5.12939 16.4087,1.96272 25.5,4C 31.745,7.20754 38.245,9.70754 45,11.5C 48.3458,11.0391 51.5124,10.0391 54.5,8.5C 55.3319,10.936 54.6653,13.1026 52.5,15C 48.6192,16.1901 44.6192,16.8568 40.5,17C 39.1667,18.6667 39.1667,20.3333 40.5,22C 37.2245,26.7055 34.0578,26.5388 31,21.5C 28.201,26.2869 24.0344,27.7869 18.5,26C 15.6598,22.5195 16.3265,21.6861 20.5,23.5C 22.374,23.6102 23.874,22.9436 25,21.5C 26.5,12.3333 22.6667,8.5 13.5,10C 11.04,11.4578 8.87337,13.2911 7,15.5C 7.51421,19.8763 9.18088,23.8763 12,27.5C 15.6667,32.1667 19.3333,36.8333 23,41.5C 24.3811,39.3651 25.3811,37.0318 26,34.5C 27.214,32.9512 28.714,31.7845 30.5,31C 36.8525,30.5134 43.1859,29.8467 49.5,29C 53.3333,26.5 56.5,23.3333 59,19.5C 60.4028,21.1981 62.2362,21.6981 64.5,21C 62.5859,25.3036 62.0859,29.8036 63,34.5C 67.7121,39.5434 72.0454,44.8767 76,50.5C 76.6667,52.8333 76.6667,55.1667 76,57.5C 74.4412,59.2166 73.6079,61.2166 73.5,63.5C 83.2418,63.7099 92.5751,61.8766 101.5,58C 104.14,53.2981 103.64,48.7981 100,44.5C 93.481,39.6159 88.6477,40.9492 85.5,48.5C 87.316,50.8169 89.316,52.9835 91.5,55C 83.281,55.4097 80.1143,51.5764 82,43.5C 73.9598,43.1445 72.4598,39.8112 77.5,33.5C 72.3867,29.3275 70.5533,23.9941 72,17.5C 72.414,17.0426 72.914,16.7093 73.5,16.5C 75.4578,20.2485 77.7911,23.7485 80.5,27C 86.8808,30.574 93.5475,33.574 100.5,36C 103.967,39.4345 105.967,43.6011 106.5,48.5C 105.379,51.1965 105.379,53.8631 106.5,56.5C 110.286,55.1074 113.952,53.4407 117.5,51.5C 117.833,52 118.167,52.5 118.5,53C 116.725,57.0441 115.392,61.2108 114.5,65.5C 120.58,63.7361 126.247,64.5694 131.5,68C 135.816,74.2722 138.983,81.1055 141,88.5C 144.253,93.0494 148.42,96.5494 153.5,99C 146.532,101.566 141.032,99.7327 137,93.5C 135.229,94.3041 133.729,95.4708 132.5,97C 127.781,97.5666 126.115,95.5666 127.5,91C 124.7,89.7681 121.7,89.1015 118.5,89C 115.651,86.4406 114.817,83.2739 116,79.5C 119.139,87.051 123.139,87.3843 128,80.5C 128.575,74.6931 126.075,70.5264 120.5,68C 117.001,66.8799 114.167,67.7132 112,70.5C 109.187,79.6963 108.02,89.0296 108.5,98.5C 112.05,95.7197 116.05,94.8864 120.5,96C 126.5,100.667 132.5,105.333 138.5,110C 142.064,110.316 145.397,109.483 148.5,107.5C 149.59,108.391 149.59,109.391 148.5,110.5C 149.167,111.5 149.833,112.5 150.5,113.5C 145.922,115.034 142.756,118.034 141,122.5C 140.028,129.135 139.361,135.801 139,142.5C 137.332,146.165 134.499,148.332 130.5,149C 129.549,149.718 129.383,150.551 130,151.5C 136.533,158.184 144.033,163.517 152.5,167.5C 158.788,163.915 160.955,158.582 159,151.5C 154.061,146.066 149.561,146.232 145.5,152C 145.975,153.763 146.642,155.43 147.5,157C 145.704,157.436 144.371,156.769 143.5,155C 141.276,149.535 142.61,145.202 147.5,142C 143.351,138.464 143.517,135.297 148,132.5C 149.44,133.148 150.94,133.481 152.5,133.5C 152.305,129.085 152.805,124.751 154,120.5C 155.413,118.586 157.247,117.253 159.5,116.5C 159.833,117 160.167,117.5 160.5,118C 159.233,121.773 158.233,125.607 157.5,129.5C 158.857,134.547 161.024,139.214 164,143.5C 167.877,153.761 165.377,161.928 156.5,168C 159.933,170.711 163.6,172.877 167.5,174.5C 162.167,174.5 156.833,174.5 151.5,174.5C 144.939,171.55 138.606,168.05 132.5,164C 125.462,157.293 118.128,150.96 110.5,145C 99.8543,138.694 89.5209,139.028 79.5,146C 75.0439,149.912 71.0439,154.245 67.5,159C 73.8223,161.826 79.8223,165.159 85.5,169C 90.185,171.084 94.5183,170.418 98.5,167C 102.5,163 102.5,159 98.5,155C 96.8333,154.333 95.1667,154.333 93.5,155C 92.8448,156.487 91.8448,157.653 90.5,158.5C 89.3259,154.019 90.9925,150.852 95.5,149C 100.937,147.345 105.103,148.845 108,153.5C 108.804,157.204 108.304,160.704 106.5,164C 113.579,164.953 120.579,166.62 127.5,169C 130.266,170.371 132.599,172.204 134.5,174.5C 131.5,174.5 128.5,174.5 125.5,174.5C 115.848,169.22 106.182,169.22 96.5,174.5C 92.8333,174.5 89.1667,174.5 85.5,174.5C 82.6282,173.675 79.6282,172.841 76.5,172C 72.5536,169.443 68.3869,167.277 64,165.5C 61.726,167.563 59.226,167.563 56.5,165.5C 55.3554,164.224 55.3554,162.891 56.5,161.5C 53.5866,159.125 50.4199,157.125 47,155.5C 47.3333,151.167 47.6667,146.833 48,142.5C 43.2877,141.365 38.7877,139.699 34.5,137.5C 33.0182,133.261 31.8516,128.927 31,124.5C 27.0559,123.739 23.2226,124.405 19.5,126.5C 16.7693,124.054 14.7693,121.054 13.5,117.5C 11.6467,117.08 9.81333,116.747 8,116.5C 5.86608,113.478 6.03275,110.645 8.5,108C 5.10981,101.516 2.10981,95.016 -0.5,88.5C -0.5,83.8333 -0.5,79.1667 -0.5,74.5C 2.3744,69.6697 3.70773,64.3364 3.5,58.5C 4.13911,53.4248 2.80578,49.0915 -0.5,45.5C -0.5,42.1667 -0.5,38.8333 -0.5,35.5C 6.44404,43.4284 9.44404,52.7618 8.5,63.5C 20.6248,59.8003 25.7914,64.1336 24,76.5C 22.2707,79.7031 19.604,81.7031 16,82.5C 16.9834,80.1013 18.1501,77.6013 19.5,75C 17.7167,70.2139 14.3833,68.5473 9.5,70C 5.01112,73.4705 3.17779,77.9705 4,83.5C 7.64181,89.952 11.1418,96.452 14.5,103C 25.3189,97.4618 31.6522,88.4618 33.5,76C 32.7073,71.7688 31.5406,67.6022 30,63.5C 23.7642,53.9278 16.7642,44.9278 9,36.5C 5.26005,30.3535 2.09338,24.0202 -0.5,17.5C -0.5,11.8333 -0.5,6.16667 -0.5,0.5 Z M 47.5,35.5 C 53.2875,34.3089 57.2875,36.3089 59.5,41.5C 57.661,43.5271 57.161,45.8604 58,48.5C 61.259,50.139 64.759,51.3056 68.5,52C 71.5199,54.264 72.1865,57.0973 70.5,60.5C 69.635,61.5827 68.635,61.7494 67.5,61C 63.2744,57.1405 58.2744,54.8072 52.5,54C 51.8747,51.1997 51.208,48.3664 50.5,45.5C 48.6553,47.2313 46.822,48.898 45,50.5C 39.3107,47.1629 33.3107,44.8295 27,43.5C 26.8621,39.8008 28.6955,37.8008 32.5,37.5C 36.0366,37.935 39.0366,39.435 41.5,42C 46.921,43.2799 48.921,41.1132 47.5,35.5 Z M 32.5,52.5 C 37.0595,53.5383 40.7261,56.0383 43.5,60C 46.8333,60.3333 50.1667,60.6667 53.5,61C 55.8609,61.1968 57.5276,62.3635 58.5,64.5C 52.1262,66.7368 46.1262,69.7368 40.5,73.5C 38.2252,66.3409 35.5585,59.3409 32.5,52.5 Z M 103.5,63.5 C 104.833,63.5 106.167,63.5 107.5,63.5C 102.024,79.3207 99.1907,95.6541 99,112.5C 93.6677,132.418 80.8343,140.584 60.5,137C 59.9186,136.107 59.5852,135.107 59.5,134C 61.4106,127.525 63.2439,121.025 65,114.5C 68.2769,108.891 73.1103,107.058 79.5,109C 85.6064,115.433 84.273,119.766 75.5,122C 87.1153,125.719 91.9486,121.552 90,109.5C 89.5348,108.069 88.7014,106.903 87.5,106C 85.5789,105.64 83.9122,104.806 82.5,103.5C 89.5115,95.8127 93.5115,86.8127 94.5,76.5C 83.7942,76.4365 75.2942,80.7698 69,89.5C 67.4395,86.2167 65.2728,83.3834 62.5,81C 50.7074,80.076 46.7074,85.2426 50.5,96.5C 51.0016,97.521 51.6683,97.6877 52.5,97C 51.1093,92.6089 52.6093,89.4423 57,87.5C 66.685,93.6501 66.8517,100.15 57.5,107C 50.9471,109.094 44.4471,111.261 38,113.5C 37.3333,112.833 36.6667,112.167 36,111.5C 32.7717,96.8458 36.9384,85.0124 48.5,76C 51.0891,74.8035 53.7558,73.8035 56.5,73C 68.1691,71.3331 79.8358,69.6665 91.5,68C 95.8373,67.0948 99.8373,65.5948 103.5,63.5 Z M 84.5,82.5 C 85.8333,82.5 87.1667,82.5 88.5,82.5C 88.3909,87.1634 86.7243,91.1634 83.5,94.5C 79.3209,99.0878 74.3209,102.421 68.5,104.5C 67.8333,104.333 67.1667,104.167 66.5,104C 70.1966,94.8118 76.1966,87.6451 84.5,82.5 Z M 110.5,100.5 C 113.365,100.055 115.865,100.722 118,102.5C 119.006,106.903 120.506,111.069 122.5,115C 125.017,115.579 127.017,114.746 128.5,112.5C 134.123,114.665 135.956,118.665 134,124.5C 132.175,125.103 130.341,125.77 128.5,126.5C 128.069,127.293 127.735,128.127 127.5,129C 129.082,132.91 131.082,136.576 133.5,140C 132.527,144.348 130.027,146.181 126,145.5C 125.574,138.668 123.407,132.502 119.5,127C 121.731,125.39 123.731,123.557 125.5,121.5C 122.691,121.476 119.857,121.143 117,120.5C 115.637,113.941 112.804,108.108 108.5,103C 109.381,102.292 110.047,101.458 110.5,100.5 Z M 26.5,103.5 C 28.3005,104.719 29.3005,106.552 29.5,109C 28.3507,110.73 28.3507,112.396 29.5,114C 24.533,119.239 20.8664,118.406 18.5,111.5C 21.4939,109.173 24.1606,106.506 26.5,103.5 Z M 106.5,113.5 C 107.79,114.058 108.623,115.058 109,116.5C 107.762,124.032 110.095,130.032 116,134.5C 117.496,136.45 117.663,138.45 116.5,140.5C 110.509,137.004 104.176,134.338 97.5,132.5C 101.317,126.534 104.317,120.201 106.5,113.5 Z M 52.5,115.5 C 53.8333,115.5 55.1667,115.5 56.5,115.5C 55.4779,121.923 53.9779,128.256 52,134.5C 43.1154,136.795 38.282,133.295 37.5,124C 37.4393,122.289 38.1059,120.956 39.5,120C 43.9908,118.637 48.3241,117.137 52.5,115.5 Z M 60.5,143.5 C 63.203,143.952 65.8697,144.619 68.5,145.5C 66.5126,149.32 63.6793,152.32 60,154.5C 54.5926,153.273 53.2593,150.273 56,145.5C 57.6225,144.901 59.1225,144.234 60.5,143.5 Z"/></g>
<g><path style="opacity:0.691" fill="#000000" d="M 63.5,4.5 C 68.7087,3.70518 70.7087,5.70518 69.5,10.5C 63.1294,12.7962 61.1294,10.7962 63.5,4.5 Z"/></g>
<g><path style="opacity:0.702" fill="#000000" d="M 159.5,101.5 C 164.266,102.158 165.6,104.658 163.5,109C 159.798,110.393 157.798,109.226 157.5,105.5C 157.803,103.886 158.47,102.552 159.5,101.5 Z"/></g>
</svg>
